ply
format ascii 1.0
comment Created by Blender 2.74 (sub 0) - www.blender.org, source file: ''
element vertex 309
property float x
property float y
property float z
property float nx
property float ny
property float nz
property float s
property float t
property uchar red
property uchar green
property uchar blue
element face 308
property list uchar uint vertex_indices
end_header
0.035479 0.088998 0.089030 0.000000 0.899586 -0.436745 0.144933 0.090311 255 255 255
-0.000000 0.088998 0.089030 0.000000 0.899586 -0.436745 0.155658 0.090941 255 255 255
-0.000000 0.125947 0.165134 0.000000 0.899586 -0.436745 0.157439 0.121993 255 255 255
-0.035479 0.088998 0.089030 0.000000 0.899586 -0.436745 0.165728 0.091872 255 255 255
0.059161 0.123589 0.167591 0.053453 0.907863 -0.415845 0.140077 0.122552 255 255 255
0.035479 0.088998 0.089030 0.053453 0.907863 -0.415845 0.144933 0.090311 255 255 255
-0.000000 0.125947 0.165134 0.053453 0.907863 -0.415845 0.157439 0.121993 255 255 255
-0.059161 0.123589 0.167591 -0.053453 0.907863 -0.415845 0.173363 0.124349 255 255 255
-0.000000 0.125947 0.165134 -0.053453 0.907863 -0.415845 0.157439 0.121993 255 255 255
-0.035479 0.088998 0.089030 -0.053453 0.907863 -0.415845 0.165728 0.091872 255 255 255
0.160564 0.078449 0.041697 -0.791749 -0.292456 0.536286 0.379039 0.013193 255 255 255
0.125510 0.047969 -0.026677 -0.791749 -0.292456 0.536286 0.330305 0.066091 255 255 255
0.166879 0.049916 0.035460 -0.791749 -0.292456 0.536286 0.337081 0.016152 255 255 255
0.066862 0.053756 -0.108289 -0.795925 -0.242313 0.554786 0.333858 0.132595 255 241 36
0.125510 0.047969 -0.026677 -0.795925 -0.242313 0.554786 0.330305 0.066091 255 255 255
0.121220 0.081545 -0.018167 -0.795925 -0.242313 0.554786 0.379156 0.060961 255 255 255
0.124999 0.021982 -0.026336 -0.808649 0.263924 0.525742 0.203856 0.036588 255 239 242
0.166888 0.023976 0.036582 -0.199591 0.236274 0.950926 0.204436 0.023552 255 239 242
0.167261 0.025590 0.036120 -0.165868 0.308817 0.936521 0.204225 0.023594 255 239 242
0.068453 0.019184 -0.115308 -0.930662 0.274361 -0.241951 0.203213 0.050481 255 243 73
0.126862 0.028375 -0.027577 -0.829920 0.122562 0.544237 0.203029 0.036633 255 255 255
0.068795 0.033132 -0.112710 -0.978881 0.060945 -0.195013 0.201438 0.050269 255 243 73
0.121220 0.081545 -0.018167 -0.817358 -0.237479 0.524909 0.379156 0.060961 255 255 255
0.125510 0.047969 -0.026677 -0.817358 -0.237479 0.524909 0.330305 0.066091 255 255 255
0.160564 0.078449 0.041697 -0.817358 -0.237479 0.524909 0.379039 0.013193 255 255 255
0.068944 0.038876 -0.111641 -0.976897 -0.006104 -0.213538 0.200722 0.050185 255 243 75
0.125510 0.047969 -0.026677 -0.817408 -0.166601 0.551408 0.200554 0.036785 255 255 255
0.066862 0.053756 -0.108289 -0.875362 0.462386 -0.141057 0.198609 0.052451 255 241 36
0.165140 0.007069 0.039156 -0.206549 -0.491348 0.846095 0.205017 0.023011 255 239 242
0.061881 0.007327 -0.116030 -0.928404 -0.329173 -0.172338 0.204585 0.050918 255 239 48
0.122617 0.007175 -0.024751 -0.659749 -0.610614 0.437971 0.204429 0.036558 255 239 242
0.167277 0.044652 0.035271 -0.195654 -0.049837 0.979400 0.201788 0.023903 255 255 255
0.168362 0.030270 0.034758 -0.135502 0.135563 0.981445 0.203606 0.023889 255 255 255
0.066149 0.013996 -0.115760 -0.883084 0.420148 -0.208716 0.203821 0.050647 255 239 61
0.065371 0.012317 -0.115898 -0.825617 0.511521 -0.237983 0.204033 0.050707 255 239 60
0.068453 0.019184 -0.115308 -0.930662 0.274361 -0.241951 0.203213 0.050481 255 239 69
0.126862 0.028375 -0.027577 -0.829920 0.122562 0.544237 0.203029 0.036633 255 239 242
0.168362 0.030270 0.034758 -0.135502 0.135563 0.981445 0.203606 0.023889 255 239 242
0.165141 0.078085 0.038681 0.791749 0.292455 -0.536287 0.428653 0.129109 255 255 255
0.171455 0.049552 0.032444 0.791749 0.292455 -0.536287 0.386006 0.128787 255 255 255
0.130087 0.047605 -0.029693 0.791749 0.292455 -0.536287 0.379035 0.079599 255 255 255
0.071439 0.053392 -0.111305 0.795925 0.242312 -0.554786 0.382567 0.013177 255 241 36
0.125796 0.081181 -0.021183 0.795925 0.242312 -0.554786 0.428653 0.081788 255 255 255
0.130087 0.047605 -0.029693 0.795925 0.242312 -0.554786 0.379035 0.079599 255 255 255
0.129575 0.021618 -0.029353 0.808649 -0.263924 -0.525742 0.203856 0.036588 255 239 242
0.131438 0.028011 -0.030593 0.829920 -0.122562 -0.544237 0.203029 0.036633 255 239 242
0.171837 0.025227 0.033103 0.961577 -0.159490 0.223365 0.204225 0.023594 255 239 242
0.073029 0.018820 -0.118325 0.292367 0.032105 -0.955748 0.203213 0.050481 255 243 73
0.073372 0.032769 -0.115726 0.202704 0.174291 -0.963591 0.201438 0.050269 255 243 73
0.131438 0.028011 -0.030593 0.829920 -0.122562 -0.544237 0.203029 0.036633 255 255 255
0.125796 0.081181 -0.021183 0.817358 0.237479 -0.524909 0.428653 0.081788 255 255 255
0.165141 0.078085 0.038681 0.817358 0.237479 -0.524909 0.428653 0.129109 255 255 255
0.130087 0.047605 -0.029693 0.817358 0.237479 -0.524909 0.379035 0.079599 255 255 255
0.073520 0.038512 -0.114657 0.224311 0.202734 -0.953185 0.200722 0.050185 255 243 75
0.071439 0.053392 -0.111305 0.108585 0.574786 -0.811029 0.198609 0.052451 255 241 36
0.130087 0.047605 -0.029693 0.817408 0.166601 -0.551408 0.200554 0.036785 255 255 255
0.171464 0.023613 0.033566 0.964446 -0.102634 0.243477 0.204436 0.023552 255 239 242
0.169716 0.006706 0.036140 0.752007 -0.618183 0.228645 0.205017 0.023011 255 239 242
0.127193 0.006812 -0.027767 0.507736 -0.791894 -0.339152 0.204429 0.036558 255 239 242
0.066457 0.006963 -0.119046 -0.055849 -0.565386 -0.822901 0.204585 0.050918 255 239 48
0.171854 0.044288 0.032255 0.977752 0.066775 0.198706 0.201788 0.023903 255 255 255
0.172939 0.029906 0.031742 0.989807 -0.063601 0.127201 0.203606 0.023889 255 255 255
0.069947 0.011954 -0.118914 0.235969 -0.108890 -0.965636 0.204033 0.050707 255 239 60
0.070725 0.013633 -0.118776 0.222663 -0.020600 -0.974670 0.203821 0.050647 255 239 61
0.171455 0.049552 0.032444 0.978210 0.129582 0.162053 0.201122 0.023955 255 255 255
0.073029 0.018820 -0.118325 0.292367 0.032105 -0.955748 0.203213 0.050481 255 239 69
0.172939 0.029906 0.031742 0.989807 -0.063601 0.127201 0.203606 0.023889 255 239 242
0.160564 0.078449 0.041697 0.078959 0.996878 -0.000334 0.432972 0.016231 255 255 255
0.165141 0.078085 0.038681 0.078959 0.996878 -0.000334 0.441080 0.017372 255 255 255
0.125796 0.081181 -0.021183 0.078959 0.996878 -0.000334 0.436670 0.060748 255 255 255
0.166879 0.049916 0.035460 0.545818 -0.061870 0.835617 0.441080 0.018536 255 255 255
0.171455 0.049552 0.032444 0.545818 -0.061870 0.835617 0.448699 0.018332 255 255 255
0.165141 0.078085 0.038681 0.545818 -0.061870 0.835617 0.448240 0.036296 255 255 255
0.066862 0.053756 -0.108289 -0.085526 0.965460 -0.246116 0.432181 0.131015 255 241 36
0.121220 0.081545 -0.018167 -0.085526 0.965460 -0.246116 0.428810 0.060557 255 255 255
0.125796 0.081181 -0.021183 -0.085526 0.965460 -0.246116 0.436670 0.060748 255 255 255
-0.035479 0.054657 -0.137189 -0.045289 0.983551 -0.174780 0.189828 0.026299 255 239 0
-0.035479 0.040620 -0.287741 -0.038423 0.916105 -0.399030 0.191106 0.010461 255 239 0
-0.070957 0.041411 -0.278346 -0.446455 0.882015 -0.150609 0.195491 0.009998 255 239 0
0.035479 0.003688 -0.278346 0.001434 -0.981842 -0.189642 0.173148 0.016141 255 239 0
0.070957 0.003688 -0.278346 0.427107 -0.895413 -0.125645 0.177308 0.015325 255 239 0
0.070957 0.003688 -0.141486 0.511246 -0.859249 0.016480 0.176314 0.029347 255 239 0
-0.071002 0.022013 0.181896 -0.707083 -0.483352 0.516098 0.159850 0.073927 255 240 243
-0.059221 0.001472 0.163024 -0.479324 -0.861202 0.168889 0.160185 0.072479 255 239 242
-0.038005 0.001472 0.178603 -0.145146 -0.877010 0.457961 0.164225 0.071342 255 239 242
0.074492 0.024646 0.096356 0.957152 -0.285989 0.045289 0.204631 0.019172 255 239 242
0.071002 0.022013 0.181896 0.707083 -0.483352 0.516098 0.204504 0.010284 255 239 242
0.059221 0.001472 0.163024 0.479324 -0.861202 0.168889 0.205046 0.011777 255 239 242
0.037246 0.009076 -0.291982 0.000000 -0.874264 -0.485397 0.173516 0.014452 255 239 0
0.074492 0.009076 -0.291982 0.556810 -0.767174 -0.318339 0.177889 0.013604 255 239 0
-0.074492 0.009076 -0.148304 -0.900388 -0.434767 0.015107 0.215254 0.026642 255 239 0
-0.074492 0.009076 -0.291982 -0.556810 -0.767174 -0.318339 0.216597 0.009947 255 239 0
-0.070957 0.003688 -0.278346 -0.427107 -0.895413 -0.125645 0.217162 0.011478 255 239 0
-0.074492 0.021982 -0.004626 -0.964476 -0.263924 0.010498 0.214929 0.044690 255 239 242
-0.070957 0.003688 -0.004626 -0.650075 -0.759819 0.000000 0.215662 0.044692 255 239 239
-0.070957 0.003688 0.089538 -0.670156 -0.741356 0.034822 0.216328 0.063288 255 239 242
-0.075107 0.050633 0.097542 -0.977996 0.205786 0.033601 0.212235 0.064446 255 255 255
-0.075107 0.047969 -0.004626 -0.985992 0.166601 -0.005982 0.211510 0.044722 255 255 255
-0.076731 0.028375 -0.004626 -0.992431 -0.122562 0.006897 0.214073 0.044693 255 255 255
-0.075107 0.035063 -0.294353 -0.602344 0.574633 -0.554003 0.213197 0.009716 255 239 0
-0.076731 0.015469 -0.300616 -0.624439 -0.251167 -0.739555 0.215850 0.008987 255 239 0
-0.076731 0.015469 -0.152621 -0.991607 -0.129124 0.003235 0.214423 0.026124 255 239 0
-0.000000 0.009076 -0.291982 0.000000 -0.874264 -0.485397 0.169196 0.015390 255 239 0
-0.000000 0.003688 -0.278346 0.000000 -0.981475 -0.191534 0.169035 0.017039 255 239 0
-0.035479 0.003688 -0.278346 -0.001434 -0.981842 -0.189642 0.164970 0.018018 255 239 0
-0.037553 0.035063 -0.294353 -0.032655 0.582049 -0.812494 0.219660 0.013405 255 239 0
-0.000000 0.035063 -0.294353 0.000000 0.556871 -0.830592 0.219265 0.017717 255 239 0
-0.000000 0.015469 -0.300616 0.000000 -0.306986 -0.951689 0.216571 0.017701 255 240 5
0.075107 0.035063 -0.294353 0.602344 0.574633 -0.554003 0.218681 0.026601 255 239 0
0.076730 0.015469 -0.300616 0.624439 -0.251167 -0.739555 0.215980 0.026780 255 239 0
0.038365 0.015469 -0.300616 0.000000 -0.306986 -0.951689 0.216240 0.022193 255 239 0
0.070957 0.003688 -0.004626 0.650075 -0.759819 0.000000 0.204564 0.036551 255 239 242
0.070957 0.003688 -0.141486 0.511246 -0.859249 0.016480 0.204766 0.054476 255 239 0
0.071660 0.007327 -0.114265 0.935087 -0.353618 0.023103 0.204585 0.050918 255 239 48
0.075107 0.035063 -0.149490 0.986938 0.160588 -0.011658 0.200792 0.055803 255 239 0
0.075107 0.038876 -0.106698 0.807886 0.157811 0.567766 0.200722 0.050185 255 243 75
0.075576 0.033132 -0.107669 0.838221 0.070070 0.540757 0.201438 0.050269 255 243 73
0.071588 0.042161 0.184157 0.691061 0.423811 0.585467 0.201227 0.010221 255 255 255
0.073135 0.031512 0.185389 0.761193 -0.102939 0.640248 0.203785 0.009367 255 255 255
0.076730 0.031039 0.100673 0.991668 -0.126347 0.024415 0.203841 0.018713 255 255 255
0.035501 0.022013 0.194381 0.167791 -0.327952 0.929655 0.172707 0.070608 255 240 243
-0.000000 0.022013 0.195944 0.000000 -0.257698 0.966216 0.168374 0.071619 255 239 242
-0.000000 0.001472 0.182706 0.000000 -0.873928 0.486038 0.168306 0.070292 255 239 242
0.035794 0.045884 0.194093 0.120396 0.551561 0.825373 0.514988 0.221258 255 255 255
-0.000000 0.045884 0.194093 0.000000 0.553026 0.833155 0.515020 0.213204 255 255 255
-0.000000 0.035235 0.195325 0.000000 0.067507 0.997711 0.539388 0.214996 255 255 255
-0.071588 0.042161 0.184157 -0.691061 0.423811 0.585467 0.523288 0.198234 255 255 255
-0.073135 0.031512 0.185389 -0.761193 -0.102939 0.640248 0.548425 0.200199 255 255 255
-0.036568 0.035235 0.195325 -0.155339 0.012024 0.987762 0.539406 0.206933 255 255 255
0.035479 0.002428 -0.004626 0.017731 -0.999817 0.000000 0.171804 0.045226 255 239 242
0.070957 0.003688 -0.004626 0.650075 -0.759819 0.000000 0.175956 0.044293 255 239 242
0.070957 0.003688 0.089538 0.670156 -0.741356 0.034822 0.176234 0.060232 255 239 242
-0.035479 0.002428 -0.004626 -0.017731 -0.999817 0.000000 0.163638 0.047189 255 239 242
-0.000000 0.002428 -0.004626 0.000000 -1.000000 0.000000 0.167699 0.046165 255 242 245
-0.000000 0.002428 0.089538 0.000000 -0.999969 -0.005280 0.167960 0.062141 255 239 242
-0.000000 0.002428 -0.141486 0.000000 -0.999969 -0.004578 0.168054 0.031178 255 239 2
-0.035479 0.089415 0.089538 -0.109348 0.973113 0.202612 0.189871 0.061630 255 255 255
-0.035479 0.093797 -0.004626 -0.089328 0.988372 -0.122806 0.189415 0.043252 255 255 255
-0.065014 0.088861 0.001106 -0.655812 0.752770 -0.056673 0.193782 0.042762 255 255 255
0.035479 0.093797 -0.004626 0.089328 0.988372 -0.122806 0.180844 0.044499 255 255 255
-0.000000 0.093797 -0.004626 0.000000 0.992828 -0.119297 0.185103 0.043831 255 255 255
-0.000000 0.089415 0.089538 0.000000 0.980010 0.198798 0.185548 0.062218 255 255 255
0.035479 0.040620 -0.287741 0.038423 0.916105 -0.399030 0.182502 0.011643 255 239 0
-0.000000 0.040620 -0.287741 0.000000 0.922086 -0.386914 0.186777 0.011010 255 239 0
-0.000000 0.054657 -0.141486 0.000000 0.984008 -0.177984 0.185513 0.026864 255 239 0
0.035479 0.054657 -0.137189 0.033278 0.960922 -0.274811 0.155834 0.115468 255 239 0
-0.000000 0.054657 -0.141486 0.033278 0.960922 -0.274811 0.149158 0.115312 255 239 0
-0.000000 0.093797 -0.004626 0.033278 0.960922 -0.274811 0.147057 0.088860 255 255 255
0.070957 0.054657 -0.120712 0.130391 0.950882 -0.280753 0.162325 0.115785 255 239 25
0.035479 0.054657 -0.137189 0.130391 0.950882 -0.280753 0.155834 0.115468 255 239 0
0.035479 0.093797 -0.004626 0.130391 0.950882 -0.280753 0.153740 0.088988 255 255 255
0.070957 0.041411 -0.278346 0.446455 0.882015 -0.150609 0.178280 0.012359 255 239 0
0.035479 0.054657 -0.137189 0.045289 0.983551 -0.174780 0.181251 0.027515 255 239 0
0.035479 0.089415 0.089538 0.109348 0.973113 0.202612 0.144933 0.090311 255 255 255
-0.000000 0.089415 0.089538 0.000000 0.980010 0.198798 0.155658 0.090941 255 255 255
-0.000000 0.060107 0.168899 0.000000 0.909848 0.414899 0.157439 0.121993 255 255 255
0.065014 0.083276 0.083807 0.661885 0.740043 0.119053 0.177058 0.063666 255 255 255
0.035479 0.089415 0.089538 0.109348 0.973113 0.202612 0.181278 0.062897 255 255 255
0.059161 0.056702 0.168899 0.139317 0.886380 0.441450 0.181839 0.073111 255 255 255
0.065014 0.088861 0.001106 0.655812 0.752770 -0.056673 0.176635 0.045254 255 255 255
-0.059161 0.056702 0.168899 -0.139317 0.886380 0.441450 0.190454 0.071837 255 255 255
-0.065014 0.083276 0.083807 -0.661885 0.740043 0.119053 0.194248 0.061133 255 255 255
-0.035479 0.089415 0.089538 -0.109348 0.973113 0.202612 0.165728 0.091872 255 255 255
-0.035479 0.002428 -0.141486 -0.017731 -0.999817 -0.004578 0.163995 0.032180 255 239 3
-0.070957 0.003688 -0.141486 -0.511246 -0.859249 0.016480 0.159983 0.033189 255 239 30
-0.070957 0.003688 -0.278346 -0.427107 -0.895413 -0.125645 0.160949 0.019077 255 239 0
-0.035479 0.002428 0.089538 -0.015625 -0.999817 -0.008087 0.163888 0.063184 255 239 242
-0.070957 0.003688 0.089538 -0.670156 -0.741356 0.034822 0.159855 0.064226 255 239 242
-0.070957 0.003688 -0.004626 -0.650075 -0.759819 0.000000 0.159620 0.048216 255 239 242
0.035479 0.002428 0.089538 0.015625 -0.999817 -0.008087 0.172076 0.061185 255 239 242
0.059221 0.001472 0.163024 0.479324 -0.861202 0.168889 0.176600 0.068453 255 239 242
0.038005 0.001472 0.178603 0.145146 -0.877010 0.457961 0.172430 0.069328 255 239 242
-0.035794 0.045884 0.194093 -0.120396 0.551561 0.825373 0.515000 0.205498 255 255 255
-0.000000 0.060107 0.168899 0.000000 0.909848 0.414899 0.215680 0.036244 255 255 255
-0.059161 0.056702 0.168899 -0.139317 0.886380 0.441450 0.215782 0.031818 255 255 255
-0.035794 0.045884 0.194093 -0.120396 0.551561 0.825373 0.219103 0.031589 255 255 255
-0.067632 0.055309 0.168899 -0.578234 0.735466 0.353160 0.215947 0.027478 255 255 255
-0.071588 0.042161 0.184157 -0.691061 0.423811 0.585467 0.219285 0.027002 255 255 255
0.071588 0.042161 0.184157 0.691061 0.423811 0.585467 0.523282 0.230108 255 255 255
0.036568 0.035235 0.195325 0.155339 0.012024 0.987762 0.539451 0.223436 255 255 255
0.059161 0.056702 0.168899 0.139317 0.886380 0.441450 0.215642 0.040759 255 255 255
0.035794 0.045884 0.194093 0.120396 0.551561 0.825373 0.218955 0.041055 255 255 255
0.071588 0.042161 0.184157 0.691061 0.423811 0.585467 0.218990 0.045940 255 255 255
-0.000000 0.045884 0.194093 0.000000 0.553026 0.833155 0.218993 0.036272 255 255 255
0.071002 0.022013 0.181896 0.707083 -0.483352 0.516098 0.177090 0.069695 255 239 242
0.036568 0.035235 0.195325 0.155339 0.012024 0.987762 0.172873 0.071215 255 255 255
0.035501 0.022013 0.194381 0.167791 -0.327952 0.929655 0.172707 0.070608 255 255 255
0.071002 0.022013 0.181896 0.707083 -0.483352 0.516098 0.177090 0.069695 255 255 255
-0.000000 0.035235 0.195325 0.000000 0.067507 0.997711 0.168409 0.072255 255 255 255
-0.000000 0.022013 0.195944 0.000000 -0.257698 0.966216 0.168374 0.071619 255 255 255
0.076730 0.030270 0.070260 0.991546 -0.129521 0.003265 0.203606 0.023889 255 255 255
0.075543 0.044652 0.070086 0.996582 0.082400 -0.002106 0.201788 0.023903 255 255 255
0.075107 0.050633 0.097542 0.977996 0.205786 0.033601 0.201332 0.019226 255 255 255
0.075107 0.049916 0.070023 0.982025 0.188574 -0.004913 0.201122 0.023955 255 255 255
0.066394 0.078449 0.071715 0.964202 0.265084 0.004181 0.195993 0.022844 255 255 255
0.067632 0.055309 0.168899 0.578234 0.735466 0.353160 0.198587 0.012199 255 255 255
0.075107 0.035063 -0.294353 0.602344 0.574633 -0.554003 0.202033 0.076403 255 239 0
0.076730 0.015469 -0.152621 0.991607 -0.129124 0.003235 0.203287 0.056078 255 239 0
0.070957 0.041411 -0.278346 0.446455 0.882015 -0.150609 0.199392 0.074226 255 239 0
0.070957 0.054657 -0.120712 0.680105 0.720634 -0.134556 0.198306 0.054893 255 239 2
0.065014 0.088861 0.001106 0.655812 0.752770 -0.056673 0.193818 0.037349 255 255 255
0.066820 0.081545 0.000080 0.970763 0.239937 -0.002319 0.195023 0.037248 255 255 255
0.071517 0.053756 -0.105061 0.970641 0.239479 -0.020875 0.198609 0.052451 255 241 36
0.074492 0.009076 -0.148304 0.900388 -0.434767 0.015107 0.204092 0.055442 255 239 0
0.070957 0.003688 -0.278346 0.427107 -0.895413 -0.125645 0.205878 0.073811 255 239 0
0.074492 0.009076 -0.291982 0.556810 -0.767174 -0.318339 0.205326 0.075855 255 239 0
0.075063 0.013996 -0.111674 0.946287 -0.322031 0.028504 0.203821 0.050647 255 239 61
0.074492 0.012317 -0.112221 0.906400 -0.420698 0.037782 0.204033 0.050707 255 239 60
0.037553 0.035063 -0.294353 0.032655 0.582049 -0.812494 0.218939 0.022114 255 239 0
0.035479 0.040620 -0.287741 0.038423 0.916105 -0.399030 0.222299 0.021930 255 239 0
0.070957 0.041411 -0.278346 0.446455 0.882015 -0.150609 0.364133 0.422250 255 239 0
0.075107 0.035063 -0.294353 0.602344 0.574633 -0.554003 0.344175 0.422296 255 239 0
0.037553 0.035063 -0.294353 0.032655 0.582049 -0.812494 0.354180 0.382408 255 239 0
-0.075107 0.035063 -0.294353 -0.602344 0.574633 -0.554003 0.220121 0.009177 255 239 0
-0.038365 0.015469 -0.300616 0.000000 -0.306986 -0.951689 0.216973 0.013298 255 239 0
-0.070957 0.041411 -0.278346 -0.446455 0.882015 -0.150609 0.023558 0.375799 255 239 0
-0.035479 0.040620 -0.287741 -0.038423 0.916105 -0.399030 0.023558 0.416522 255 239 0
-0.037553 0.035063 -0.294353 -0.032655 0.582049 -0.812494 0.013393 0.416492 255 239 0
-0.035479 0.040620 -0.287741 -0.038423 0.916105 -0.399030 0.222984 0.013699 255 239 0
-0.000000 0.040620 -0.287741 0.000000 0.922086 -0.386914 0.222611 0.017776 255 239 0
-0.037246 0.009076 -0.291982 0.000000 -0.874264 -0.485397 0.164928 0.016417 255 239 0
-0.038365 0.015469 -0.300616 0.000000 -0.306986 -0.951689 0.164923 0.015246 255 239 0
-0.074492 0.009076 -0.291982 -0.556810 -0.767174 -0.318339 0.160709 0.017532 255 239 0
-0.000000 0.015469 -0.300616 0.000000 -0.306986 -0.951689 0.169320 0.014189 255 239 0
-0.075107 0.035063 -0.149490 -0.986938 0.160588 -0.011658 0.211840 0.026531 255 239 0
-0.070957 0.054657 -0.120712 -0.680105 0.720634 -0.134556 0.209265 0.027557 255 239 0
-0.070957 0.041411 -0.278346 -0.446455 0.882015 -0.150609 0.210462 0.011569 255 239 0
-0.071588 0.042161 0.184157 -0.691061 0.423811 0.585467 0.212082 0.075968 255 255 255
-0.076731 0.031039 0.100673 -0.991668 -0.126347 0.024415 0.214830 0.064863 255 255 255
-0.067632 0.055309 0.168899 -0.578234 0.735466 0.353160 0.209359 0.073676 255 255 255
-0.065014 0.083276 0.083807 -0.661885 0.740043 0.119053 0.205969 0.063504 255 255 255
-0.065014 0.088861 0.001106 -0.655812 0.752770 -0.056673 0.204545 0.044952 255 255 255
-0.074492 0.024646 0.096356 -0.957152 -0.285989 0.045289 0.215651 0.064249 255 239 242
-0.059221 0.001472 0.163024 -0.479324 -0.861202 0.168889 0.216046 0.073567 255 239 242
-0.076731 0.031039 0.100673 -0.991668 -0.126347 0.024415 0.214830 0.064863 255 240 243
-0.071002 0.022013 0.181896 -0.707083 -0.483352 0.516098 0.215477 0.075576 255 240 243
-0.076731 0.028375 -0.004626 -0.992431 -0.122562 0.006897 0.214073 0.044693 255 239 242
-0.070957 0.003688 -0.141486 -0.511246 -0.859249 0.016480 0.215948 0.027467 255 239 0
0.038365 0.015469 -0.300616 0.000000 -0.306986 -0.951689 0.173771 0.013226 255 239 0
0.076730 0.015469 -0.300616 0.624439 -0.251167 -0.739555 0.178280 0.012359 255 239 0
0.074492 0.023976 0.070962 0.968230 -0.249947 0.006592 0.204436 0.023552 255 239 242
0.070957 0.003688 0.089538 0.670156 -0.741356 0.034822 0.205280 0.019933 255 239 242
0.076730 0.030270 0.070260 0.991546 -0.129521 0.003265 0.203606 0.023889 255 239 242
0.076730 0.031039 0.100673 0.991668 -0.126347 0.024415 0.203841 0.018713 255 239 242
0.073135 0.031512 0.185389 0.761193 -0.102939 0.640248 0.203785 0.009367 255 239 242
-0.035501 0.022013 0.194381 -0.167791 -0.327952 0.929655 0.164090 0.072725 255 239 242
-0.036568 0.035235 0.195325 -0.155339 0.012024 0.987762 0.163995 0.073397 255 255 255
-0.035501 0.022013 0.194381 -0.167791 -0.327952 0.929655 0.164090 0.072725 255 255 255
-0.073135 0.031512 0.185389 -0.761193 -0.102939 0.640248 0.159629 0.074640 255 255 255
-0.071002 0.022013 0.181896 -0.707083 -0.483352 0.516098 0.159850 0.073927 255 255 255
0.035479 0.002428 -0.141486 0.017731 -0.999817 -0.004578 0.172159 0.030258 255 239 15
-0.035479 0.093797 -0.004626 -0.130391 0.950882 -0.280752 0.140179 0.088904 255 255 255
-0.035479 0.054657 -0.137189 -0.130391 0.950882 -0.280752 0.142291 0.115330 255 239 0
-0.070957 0.054657 -0.120712 -0.130391 0.950882 -0.280752 0.135232 0.115533 255 239 0
-0.000000 0.093797 -0.004626 -0.033278 0.960922 -0.274811 0.147057 0.088860 255 255 255
-0.000000 0.054657 -0.141486 -0.033278 0.960922 -0.274811 0.149158 0.115312 255 239 0
-0.035479 0.054657 -0.137189 -0.033278 0.960922 -0.274811 0.142291 0.115330 255 239 0
-0.070957 0.054657 -0.120712 -0.680105 0.720634 -0.134556 0.194199 0.025821 255 239 0
0.076730 0.019184 -0.110022 0.993011 -0.117405 0.010224 0.203213 0.050481 255 243 73
0.035479 0.093797 -0.004626 0.000000 0.959070 -0.283170 0.153740 0.088988 255 255 255
0.035479 0.054657 -0.137189 0.000000 0.959070 -0.283170 0.155834 0.115468 255 239 0
-0.000000 0.093797 -0.004626 0.000000 0.959070 -0.283170 0.147057 0.088860 255 255 255
0.065014 0.088861 0.001106 0.655812 0.752770 -0.056673 0.160232 0.089277 255 255 252
0.070957 0.054657 -0.120712 0.680105 0.720634 -0.134556 0.162325 0.115785 255 239 25
0.035479 0.093797 -0.004626 0.089328 0.988372 -0.122806 0.153740 0.088988 255 255 255
0.070957 0.054657 -0.120712 0.680105 0.720634 -0.134556 0.177041 0.028252 255 239 25
0.059161 0.056702 0.168899 0.139317 0.886380 0.441450 0.140077 0.122552 255 255 255
0.067632 0.055309 0.168899 0.578234 0.735466 0.353160 0.177607 0.073886 255 255 255
-0.067632 0.055309 0.168899 -0.578234 0.735466 0.353160 0.194841 0.071339 255 255 255
-0.059161 0.056702 0.168899 -0.139317 0.886380 0.441450 0.173363 0.124349 255 255 255
0.073135 0.031512 0.185389 0.761193 -0.102939 0.640248 0.548699 0.234102 255 255 255
0.067632 0.055309 0.168899 0.578234 0.735466 0.353160 0.215670 0.045366 255 255 255
0.073135 0.031512 0.185389 0.761193 -0.102939 0.640248 0.177391 0.070279 255 255 255
0.065014 0.083276 0.083807 0.661885 0.740043 0.119053 0.195270 0.020636 255 255 255
0.076730 0.015469 -0.300616 0.624439 -0.251167 -0.739555 0.204600 0.077179 255 239 0
0.075107 0.035063 -0.149490 0.986938 0.160588 -0.011658 0.200792 0.055803 255 239 1
0.076730 0.019184 -0.110022 0.993011 -0.117405 0.010224 0.203213 0.050481 255 239 69
0.035479 0.040620 -0.287741 0.038423 0.916105 -0.399030 0.364133 0.382379 255 239 0
-0.076731 0.015469 -0.300616 -0.624439 -0.251167 -0.739555 0.217444 0.008982 255 239 0
-0.075107 0.035063 -0.294353 -0.602344 0.574633 -0.554003 0.003173 0.375752 255 239 0
-0.076731 0.015469 -0.300616 -0.624439 -0.251167 -0.739555 0.160579 0.016396 255 239 0
-0.073135 0.031512 0.185389 -0.761193 -0.102939 0.640248 0.214728 0.076860 255 255 255
-0.073135 0.031512 0.185389 -0.761193 -0.102939 0.640248 0.214728 0.076860 255 240 243
0.071631 0.007175 -0.004626 0.981811 -0.189703 0.000000 0.204429 0.036558 255 239 242
0.071611 0.007069 0.072136 0.983886 -0.178716 0.002197 0.205017 0.023011 255 239 242
0.075059 0.025590 0.070783 0.942869 -0.332957 0.008576 0.204225 0.023594 255 239 242
-0.065014 0.088861 0.001106 -0.655812 0.752770 -0.056673 0.133106 0.089129 255 255 255
-0.035479 0.093797 -0.004626 -0.089328 0.988372 -0.122806 0.140179 0.088904 255 255 255
-0.070957 0.054657 -0.120712 -0.680105 0.720634 -0.134556 0.135232 0.115533 255 239 0
-0.035479 0.093797 -0.004626 0.000000 0.959070 -0.283170 0.140179 0.088904 255 255 255
-0.035479 0.054657 -0.137189 0.000000 0.959070 -0.283170 0.142291 0.115330 255 239 0
0.075107 0.047969 -0.004626 0.822321 0.161229 0.545640 0.200554 0.036785 255 255 255
0.074492 0.021982 -0.004626 0.964476 -0.263924 0.010498 0.203856 0.036588 255 239 242
0.076730 0.028375 -0.004626 0.810327 -0.155461 0.564928 0.203029 0.036633 255 239 242
0.076730 0.028375 -0.004626 0.810327 -0.155461 0.564928 0.203029 0.036633 255 255 255
0.075107 0.038876 -0.106698 0.502426 0.041627 0.863613 0.200722 0.050185 255 243 75
0.075107 0.047969 -0.004626 0.426435 0.035310 0.903806 0.200554 0.036785 255 255 255
0.076730 0.028375 -0.004626 0.436140 0.036134 0.899136 0.203029 0.036633 255 255 255
0.075576 0.033132 -0.107669 0.418928 0.034700 0.907315 0.201438 0.050269 255 243 73
0.166879 0.049916 0.035460 -0.162755 -0.153081 0.974700 0.201122 0.023955 255 255 255
0.121220 0.081545 -0.018167 0.078958 0.996878 -0.000334 0.428810 0.060557 255 255 255
0.160564 0.078449 0.041697 0.078958 0.996878 -0.000334 0.432972 0.016231 255 255 255
0.125796 0.081181 -0.021183 0.078958 0.996878 -0.000334 0.436670 0.060748 255 255 255
0.160564 0.078449 0.041697 0.545815 -0.061870 0.835618 0.440793 0.037159 255 255 255
0.166879 0.049916 0.035460 0.545815 -0.061870 0.835618 0.441080 0.018536 255 255 255
0.165141 0.078085 0.038681 0.545815 -0.061870 0.835618 0.448240 0.036296 255 255 255
0.071439 0.053392 -0.111305 -0.085525 0.965460 -0.246117 0.440061 0.131284 255 241 36
0.066862 0.053756 -0.108289 -0.085525 0.965460 -0.246117 0.432181 0.131015 255 241 36
0.125796 0.081181 -0.021183 -0.085525 0.965460 -0.246117 0.436670 0.060748 255 255 255
3 0 1 2
3 2 1 3
3 4 5 6
3 7 8 9
3 10 11 12
3 13 14 15
3 16 17 18
3 19 20 21
3 22 23 24
3 25 26 27
3 16 28 17
3 16 29 30
3 31 20 32
3 33 34 16
3 30 28 16
3 34 29 16
3 26 20 31
3 35 33 36
3 36 18 37
3 25 21 20
3 38 39 40
3 41 42 43
3 44 45 46
3 47 48 49
3 50 51 52
3 53 54 55
3 44 56 57
3 44 58 59
3 60 61 49
3 44 62 63
3 58 44 57
3 62 44 59
3 55 64 60
3 65 45 63
3 45 66 46
3 53 55 49
3 32 61 60
3 17 28 57
3 67 68 69
3 21 25 53
3 18 17 56
3 35 65 63
3 70 71 72
3 34 62 59
3 33 63 62
3 30 29 59
3 25 27 54
3 19 21 48
3 37 18 46
3 73 74 75
3 31 60 64
3 28 30 58
3 76 77 78
3 79 80 81
3 82 83 84
3 85 86 87
3 88 89 80
3 90 91 92
3 93 94 95
3 96 97 98
3 99 100 101
3 102 103 104
3 105 106 107
3 108 109 110
3 111 112 113
3 114 115 116
3 117 118 119
3 120 121 122
3 123 124 125
3 126 127 128
3 129 130 131
3 132 133 134
3 104 103 135
3 136 137 138
3 139 140 141
3 142 143 144
3 145 146 147
3 148 149 150
3 151 142 152
3 153 154 155
3 156 157 158
3 159 139 157
3 160 136 161
3 155 154 162
3 140 137 136
3 163 135 133
3 164 163 132
3 164 165 104
3 84 166 134
3 83 167 166
3 168 132 166
3 169 131 170
3 134 169 171
3 133 129 169
3 172 128 125
3 173 174 175
3 174 176 177
3 178 123 179
3 180 181 182
3 173 183 181
3 184 120 171
3 185 186 187
3 188 189 186
3 119 190 191
3 192 193 194
3 195 117 192
3 196 114 197
3 198 199 114
3 200 201 202
3 203 112 204
3 197 203 205
3 206 207 203
3 208 110 107
3 209 208 106
3 210 211 212
3 213 105 214
3 215 216 217
3 218 219 106
3 220 104 165
3 221 220 222
3 223 102 220
3 224 101 98
3 225 224 97
3 226 99 224
3 227 96 228
3 229 230 96
3 230 231 97
3 232 95 233
3 234 232 235
3 236 93 232
3 93 90 237
3 236 101 90
3 101 100 91
3 102 88 79
3 223 238 88
3 238 239 89
3 240 85 241
3 242 243 85
3 243 244 86
3 245 84 122
3 188 246 247
3 246 248 249
3 250 81 130
3 135 250 129
3 103 79 250
3 251 252 253
3 254 255 256
3 144 143 77
3 257 76 78
3 250 79 81
3 245 82 84
3 241 85 87
3 79 88 80
3 237 90 92
3 232 93 95
3 228 96 98
3 224 99 101
3 220 102 104
3 214 105 107
3 208 108 110
3 207 113 112
3 114 116 258
3 192 117 119
3 171 120 122
3 179 123 125
3 172 126 128
3 169 129 131
3 166 132 134
3 163 104 135
3 161 136 138
3 157 139 141
3 152 142 144
3 259 260 261
3 262 263 264
3 265 151 152
3 266 153 155
3 267 156 158
3 156 159 157
3 268 160 161
3 269 155 162
3 141 140 136
3 132 163 133
3 168 164 132
3 163 164 104
3 122 84 134
3 84 83 166
3 167 168 166
3 171 169 170
3 122 134 171
3 134 133 169
3 124 172 125
3 183 173 175
3 175 174 177
3 270 178 179
3 271 180 182
3 180 173 181
3 170 184 171
3 272 185 187
3 185 188 186
3 193 192 191
3 200 273 194
3 273 195 192
3 274 196 197
3 196 198 275
3 199 202 115
3 205 203 204
3 274 197 205
3 276 206 203
3 106 208 107
3 219 209 106
3 277 210 212
3 278 213 214
3 279 215 217
3 105 218 106
3 222 220 165
3 280 221 222
3 221 223 220
3 97 224 98
3 231 225 97
3 225 226 224
3 281 227 228
3 227 229 96
3 96 230 97
3 235 232 233
3 282 234 235
3 234 236 232
3 94 93 237
3 93 236 90
3 90 101 91
3 103 102 79
3 102 223 88
3 88 238 89
3 111 283 284
3 240 285 85
3 85 243 86
3 121 245 122
3 189 188 247
3 247 246 249
3 129 250 130
3 133 135 129
3 135 103 250
3 286 287 288
3 289 261 290
3 76 144 77
3 194 193 291
3 202 201 291
3 292 293 285
3 258 116 294
3 201 194 291
3 115 202 291
3 292 240 284
3 292 283 113
3 191 190 294
3 292 207 206
3 283 292 284
3 207 292 113
3 291 193 191
3 276 293 206
3 293 242 285
3 116 115 295
3 295 296 297
3 115 291 296
3 294 116 298
3 291 294 297
3 36 16 18
3 36 33 16
3 299 26 31
3 26 25 20
3 56 44 46
3 45 44 63
3 49 55 60
3 48 53 49
3 31 32 60
3 56 17 57
3 300 301 302
3 48 21 53
3 46 18 56
3 33 35 63
3 303 304 305
3 29 34 59
3 34 33 62
3 58 30 59
3 53 25 54
3 47 19 48
3 66 37 46
3 306 307 308
3 299 31 64
3 57 28 58
3 283 111 113
3 192 119 191
3 273 192 194
3 199 200 202
3 284 240 241
3 285 242 85
3 203 207 112
3 197 114 258
3 201 200 194
3 114 199 115
3 197 276 203
3 241 111 284
3 240 292 285
3 293 292 206
3 294 291 191
3 298 116 295
3 298 295 297
3 295 115 296
3 297 294 298
3 296 291 297
