ply
format ascii 1.0
comment Created by Blender 2.74 (sub 0) - www.blender.org, source file: ''
element vertex 191
property float x
property float y
property float z
property float nx
property float ny
property float nz
property float s
property float t
property uchar red
property uchar green
property uchar blue
element face 192
property list uchar uint vertex_indices
end_header
-0.035479 0.054657 -0.137189 -0.045289 0.983551 -0.174780 0.189828 0.026299 255 239 242
-0.035479 0.040620 -0.287741 -0.038423 0.916105 -0.399030 0.191106 0.010461 255 239 242
-0.070957 0.041411 -0.278346 -0.446455 0.882015 -0.150609 0.195491 0.009998 255 239 242
0.035479 0.003688 -0.278346 0.001434 -0.981842 -0.189642 0.173148 0.016141 255 242 244
0.070957 0.003688 -0.278346 0.427107 -0.895413 -0.125645 0.177308 0.015325 255 239 242
0.070957 0.003688 -0.141486 0.511246 -0.859249 0.016480 0.176314 0.029347 255 239 242
-0.071002 0.022013 0.181896 -0.707083 -0.483352 0.516098 0.159850 0.073927 255 240 243
-0.059221 0.001472 0.163024 -0.479324 -0.861202 0.168889 0.160185 0.072479 255 239 242
-0.038005 0.001472 0.178603 -0.145146 -0.877010 0.457961 0.164225 0.071342 255 239 242
0.074492 0.024646 0.096356 0.957152 -0.285989 0.045289 0.204631 0.019172 255 239 242
0.071002 0.022013 0.181896 0.707083 -0.483352 0.516098 0.204504 0.010284 255 239 242
0.059221 0.001472 0.163024 0.479324 -0.861202 0.168889 0.205046 0.011777 255 239 242
0.037246 0.009076 -0.291982 0.000000 -0.874264 -0.485397 0.173516 0.014452 255 240 242
0.074492 0.009076 -0.291982 0.556810 -0.767174 -0.318339 0.177889 0.013604 255 243 245
-0.074492 0.009076 -0.148304 -0.900388 -0.434767 0.015107 0.215254 0.026642 255 239 242
-0.074492 0.009076 -0.291982 -0.556810 -0.767174 -0.318339 0.216597 0.009947 255 255 255
-0.070957 0.003688 -0.278346 -0.427107 -0.895413 -0.125645 0.217162 0.011478 255 255 255
-0.074492 0.021982 -0.004626 -0.964476 -0.263924 0.010498 0.214929 0.044690 255 239 242
-0.070957 0.003688 -0.004626 -0.650075 -0.759819 0.000000 0.215662 0.044692 255 239 242
-0.070957 0.003688 0.089538 -0.670156 -0.741356 0.034822 0.216328 0.063288 255 239 242
-0.075107 0.050633 0.097542 -0.977996 0.205786 0.033601 0.212235 0.064446 255 255 255
-0.075107 0.047969 -0.004626 -0.985992 0.166601 -0.005982 0.211510 0.044722 255 255 255
-0.076731 0.028375 -0.004626 -0.992431 -0.122562 0.006897 0.214073 0.044693 255 255 255
-0.075107 0.035063 -0.294353 -0.602344 0.574633 -0.554003 0.213197 0.009716 255 255 255
-0.076731 0.015469 -0.300616 -0.624439 -0.251167 -0.739555 0.215850 0.008987 255 255 255
-0.076731 0.015469 -0.152621 -0.991607 -0.129124 0.003235 0.214423 0.026124 255 255 255
-0.000000 0.009076 -0.291982 0.000000 -0.874264 -0.485397 0.169196 0.015390 255 255 255
-0.000000 0.003688 -0.278346 0.000000 -0.981475 -0.191534 0.169035 0.017039 255 254 255
-0.035479 0.003688 -0.278346 -0.001434 -0.981842 -0.189642 0.164970 0.018018 255 248 250
-0.037553 0.035063 -0.294353 -0.032655 0.582049 -0.812494 0.219660 0.013405 255 255 255
-0.000000 0.035063 -0.294353 0.000000 0.556871 -0.830592 0.219265 0.017717 255 255 255
-0.000000 0.015469 -0.300616 0.000000 -0.306986 -0.951689 0.216571 0.017701 255 255 255
0.075107 0.035063 -0.294353 0.602344 0.574633 -0.554003 0.218681 0.026601 255 255 255
0.076730 0.015469 -0.300616 0.624439 -0.251167 -0.739555 0.215980 0.026780 255 255 255
0.038365 0.015469 -0.300616 0.000000 -0.306986 -0.951689 0.216240 0.022193 255 255 255
0.074492 0.021982 -0.004626 0.964476 -0.263924 0.010498 0.203856 0.036588 255 239 242
0.070957 0.003688 -0.004626 0.650075 -0.759819 0.000000 0.204564 0.036551 255 239 242
0.070957 0.003688 -0.141486 0.511246 -0.859249 0.016480 0.204766 0.054476 255 239 242
0.075107 0.035063 -0.149490 0.986938 0.160588 -0.011658 0.200792 0.055803 255 255 255
0.075107 0.047969 -0.004626 0.985992 0.166601 -0.005982 0.200554 0.036785 255 255 255
0.076730 0.028375 -0.004626 0.992431 -0.122562 0.006897 0.203029 0.036633 255 255 255
0.071588 0.042161 0.184157 0.691061 0.423811 0.585467 0.201227 0.010221 255 255 255
0.073135 0.031512 0.185389 0.761193 -0.102939 0.640248 0.203785 0.009367 255 255 255
0.076730 0.031039 0.100673 0.991668 -0.126347 0.024415 0.203841 0.018713 255 255 255
0.035501 0.022013 0.194381 0.167791 -0.327952 0.929655 0.172707 0.070608 255 240 243
-0.000000 0.022013 0.195944 0.000000 -0.257698 0.966216 0.168374 0.071619 255 239 242
-0.000000 0.001472 0.182706 0.000000 -0.873928 0.486038 0.168306 0.070292 255 239 242
0.035794 0.045884 0.194093 0.120396 0.551561 0.825373 0.514988 0.221258 255 255 255
-0.000000 0.045884 0.194093 0.000000 0.553026 0.833155 0.515020 0.213204 255 255 255
-0.000000 0.035235 0.195325 0.000000 0.067507 0.997711 0.539388 0.214996 255 255 255
-0.071588 0.042161 0.184157 -0.691061 0.423811 0.585467 0.523288 0.198234 255 255 255
-0.073135 0.031512 0.185389 -0.761193 -0.102939 0.640248 0.548425 0.200199 255 255 255
-0.036568 0.035235 0.195325 -0.155339 0.012024 0.987762 0.539406 0.206933 255 255 255
0.035479 0.002428 -0.004626 0.017731 -0.999817 0.000000 0.171804 0.045226 255 239 242
0.070957 0.003688 -0.004626 0.650075 -0.759819 0.000000 0.175956 0.044293 255 239 242
0.070957 0.003688 0.089538 0.670156 -0.741356 0.034822 0.176234 0.060232 255 239 242
-0.035479 0.002428 -0.004626 -0.017731 -0.999817 0.000000 0.163638 0.047189 255 239 242
-0.000000 0.002428 -0.004626 0.000000 -1.000000 0.000000 0.167699 0.046165 255 242 245
-0.000000 0.002428 0.089538 0.000000 -0.999969 -0.005280 0.167960 0.062141 255 239 242
-0.000000 0.002428 -0.141486 0.000000 -0.999969 -0.004578 0.168054 0.031178 255 239 242
-0.035479 0.089415 0.089538 -0.109348 0.973113 0.202612 0.189871 0.061630 255 255 255
-0.035479 0.093797 -0.004626 -0.089328 0.988372 -0.122806 0.189415 0.043252 255 255 255
-0.065014 0.088861 0.001106 -0.655812 0.752770 -0.056673 0.193782 0.042762 255 255 255
0.035479 0.093797 -0.004626 0.089328 0.988372 -0.122806 0.180844 0.044499 255 255 255
-0.000000 0.093797 -0.004626 0.000000 0.992828 -0.119297 0.185103 0.043831 255 255 255
-0.000000 0.089415 0.089538 0.000000 0.980010 0.198798 0.185548 0.062218 255 255 255
0.035479 0.040620 -0.287741 0.038423 0.916105 -0.399030 0.182502 0.011643 255 239 242
-0.000000 0.040620 -0.287741 0.000000 0.922086 -0.386914 0.186777 0.011010 255 239 242
-0.000000 0.054657 -0.141486 0.000000 0.984008 -0.177984 0.185513 0.026864 255 239 242
0.035479 0.054657 -0.137189 0.045289 0.983551 -0.174780 0.155834 0.115468 255 239 242
-0.000000 0.054657 -0.141486 0.000000 0.984008 -0.177984 0.149158 0.115312 255 239 242
-0.000000 0.093797 -0.004626 0.000000 0.992828 -0.119297 0.147057 0.088860 255 255 255
0.070957 0.054657 -0.120712 0.680105 0.720634 -0.134556 0.162325 0.115785 255 239 242
0.035479 0.093797 -0.004626 0.089328 0.988372 -0.122806 0.153740 0.088988 255 255 255
0.070957 0.041411 -0.278346 0.446455 0.882015 -0.150609 0.178280 0.012359 255 239 242
0.035479 0.054657 -0.137189 0.045289 0.983551 -0.174780 0.181251 0.027515 255 239 242
0.035479 0.089415 0.089538 0.109348 0.973113 0.202612 0.144933 0.090311 255 255 255
-0.000000 0.089415 0.089538 0.000000 0.980010 0.198798 0.155658 0.090941 255 255 255
-0.000000 0.060107 0.168899 0.000000 0.909848 0.414899 0.157439 0.121993 255 255 255
0.065014 0.083276 0.083807 0.661885 0.740043 0.119053 0.177058 0.063666 255 255 255
0.035479 0.089415 0.089538 0.109348 0.973113 0.202612 0.181278 0.062897 255 255 255
0.059161 0.056702 0.168899 0.139317 0.886380 0.441450 0.181839 0.073111 255 255 255
0.065014 0.088861 0.001106 0.655812 0.752770 -0.056673 0.176635 0.045254 255 255 255
-0.059161 0.056702 0.168899 -0.139317 0.886380 0.441450 0.190454 0.071837 255 255 255
-0.065014 0.083276 0.083807 -0.661885 0.740043 0.119053 0.194248 0.061133 255 255 255
-0.035479 0.089415 0.089538 -0.109348 0.973113 0.202612 0.165728 0.091872 255 255 255
-0.035479 0.002428 -0.141486 -0.017731 -0.999817 -0.004578 0.163995 0.032180 255 239 242
-0.070957 0.003688 -0.141486 -0.511246 -0.859249 0.016480 0.159983 0.033189 255 239 242
-0.070957 0.003688 -0.278346 -0.427107 -0.895413 -0.125645 0.160949 0.019077 255 255 255
-0.035479 0.002428 0.089538 -0.015625 -0.999817 -0.008087 0.163888 0.063184 255 239 242
-0.070957 0.003688 0.089538 -0.670156 -0.741356 0.034822 0.159855 0.064226 255 239 242
-0.070957 0.003688 -0.004626 -0.650075 -0.759819 0.000000 0.159620 0.048216 255 239 242
0.035479 0.002428 0.089538 0.015625 -0.999817 -0.008087 0.172076 0.061185 255 239 242
0.059221 0.001472 0.163024 0.479324 -0.861202 0.168889 0.176600 0.068453 255 239 242
0.038005 0.001472 0.178603 0.145146 -0.877010 0.457961 0.172430 0.069328 255 239 242
-0.035794 0.045884 0.194093 -0.120396 0.551561 0.825373 0.515000 0.205498 255 255 255
-0.000000 0.060107 0.168899 0.000000 0.909848 0.414899 0.215680 0.036244 255 255 255
-0.059161 0.056702 0.168899 -0.139317 0.886380 0.441450 0.215782 0.031818 255 255 255
-0.035794 0.045884 0.194093 -0.120396 0.551561 0.825373 0.219103 0.031589 255 255 255
-0.067632 0.055309 0.168899 -0.578234 0.735466 0.353160 0.215947 0.027478 255 255 255
-0.071588 0.042161 0.184157 -0.691061 0.423811 0.585467 0.219285 0.027002 255 255 255
0.071588 0.042161 0.184157 0.691061 0.423811 0.585467 0.523282 0.230108 255 255 255
0.036568 0.035235 0.195325 0.155339 0.012024 0.987762 0.539451 0.223436 255 255 255
0.059161 0.056702 0.168899 0.139317 0.886380 0.441450 0.215642 0.040759 255 255 255
0.035794 0.045884 0.194093 0.120396 0.551561 0.825373 0.218955 0.041055 255 255 255
0.071588 0.042161 0.184157 0.691061 0.423811 0.585467 0.218990 0.045940 255 255 255
-0.000000 0.045884 0.194093 0.000000 0.553026 0.833155 0.218993 0.036272 255 255 255
0.071002 0.022013 0.181896 0.707083 -0.483352 0.516098 0.177090 0.069695 255 239 242
0.036568 0.035235 0.195325 0.155339 0.012024 0.987762 0.172873 0.071215 255 255 255
0.035501 0.022013 0.194381 0.167791 -0.327952 0.929655 0.172707 0.070608 255 255 255
0.071002 0.022013 0.181896 0.707083 -0.483352 0.516098 0.177090 0.069695 255 255 255
-0.000000 0.035235 0.195325 0.000000 0.067507 0.997711 0.168409 0.072255 255 255 255
-0.000000 0.022013 0.195944 0.000000 -0.257698 0.966216 0.168374 0.071619 255 255 255
0.075107 0.050633 0.097542 0.977996 0.205786 0.033601 0.201332 0.019226 255 255 255
0.065014 0.083276 0.083807 0.661885 0.740043 0.119053 0.195270 0.020636 255 255 255
0.067632 0.055309 0.168899 0.578234 0.735466 0.353160 0.198587 0.012199 255 255 255
0.075107 0.035063 -0.294353 0.602344 0.574633 -0.554003 0.202033 0.076403 255 255 255
0.076730 0.015469 -0.152621 0.991607 -0.129124 0.003235 0.203287 0.056078 255 255 255
0.070957 0.041411 -0.278346 0.446455 0.882015 -0.150609 0.199392 0.074226 255 242 244
0.070957 0.054657 -0.120712 0.680105 0.720634 -0.134556 0.198306 0.054893 255 239 242
0.075107 0.035063 -0.149490 0.986938 0.160588 -0.011658 0.200792 0.055803 255 240 243
0.065014 0.088861 0.001106 0.655812 0.752770 -0.056673 0.193818 0.037349 255 255 255
0.074492 0.009076 -0.148304 0.900388 -0.434767 0.015107 0.204092 0.055442 255 239 242
0.070957 0.003688 -0.278346 0.427107 -0.895413 -0.125645 0.205878 0.073811 255 239 242
0.076730 0.015469 -0.152621 0.991607 -0.129124 0.003235 0.203287 0.056078 255 239 242
0.074492 0.009076 -0.291982 0.556810 -0.767174 -0.318339 0.205326 0.075855 255 243 245
0.076730 0.028375 -0.004626 0.992431 -0.122562 0.006897 0.203029 0.036633 255 239 242
0.037553 0.035063 -0.294353 0.032655 0.582049 -0.812494 0.218939 0.022114 255 255 255
0.035479 0.040620 -0.287741 0.038423 0.916105 -0.399030 0.222299 0.021930 255 239 242
0.070957 0.041411 -0.278346 0.446455 0.882015 -0.150609 0.364133 0.422250 255 239 242
0.075107 0.035063 -0.294353 0.602344 0.574633 -0.554003 0.344175 0.422296 255 255 255
0.037553 0.035063 -0.294353 0.032655 0.582049 -0.812494 0.354180 0.382408 255 255 255
-0.075107 0.035063 -0.294353 -0.602344 0.574633 -0.554003 0.220121 0.009177 255 253 254
-0.038365 0.015469 -0.300616 0.000000 -0.306986 -0.951689 0.216973 0.013298 255 255 255
-0.070957 0.041411 -0.278346 -0.446455 0.882015 -0.150609 0.023558 0.375799 255 239 242
-0.035479 0.040620 -0.287741 -0.038423 0.916105 -0.399030 0.023558 0.416522 255 239 242
-0.037553 0.035063 -0.294353 -0.032655 0.582049 -0.812494 0.013393 0.416492 255 255 255
-0.035479 0.040620 -0.287741 -0.038423 0.916105 -0.399030 0.222984 0.013699 255 239 242
-0.000000 0.040620 -0.287741 0.000000 0.922086 -0.386914 0.222611 0.017776 255 239 242
-0.037246 0.009076 -0.291982 0.000000 -0.874264 -0.485397 0.164928 0.016417 255 254 255
-0.038365 0.015469 -0.300616 0.000000 -0.306986 -0.951689 0.164923 0.015246 255 255 255
-0.074492 0.009076 -0.291982 -0.556810 -0.767174 -0.318339 0.160709 0.017532 255 255 255
-0.000000 0.015469 -0.300616 0.000000 -0.306986 -0.951689 0.169320 0.014189 255 255 255
-0.075107 0.035063 -0.149490 -0.986938 0.160588 -0.011658 0.211840 0.026531 255 255 255
-0.070957 0.054657 -0.120712 -0.680105 0.720634 -0.134556 0.209265 0.027557 255 255 255
-0.070957 0.041411 -0.278346 -0.446455 0.882015 -0.150609 0.210462 0.011569 255 239 242
-0.071588 0.042161 0.184157 -0.691061 0.423811 0.585467 0.212082 0.075968 255 255 255
-0.076731 0.031039 0.100673 -0.991668 -0.126347 0.024415 0.214830 0.064863 255 255 255
-0.067632 0.055309 0.168899 -0.578234 0.735466 0.353160 0.209359 0.073676 255 255 255
-0.065014 0.083276 0.083807 -0.661885 0.740043 0.119053 0.205969 0.063504 255 255 255
-0.065014 0.088861 0.001106 -0.655812 0.752770 -0.056673 0.204545 0.044952 255 255 255
-0.074492 0.024646 0.096356 -0.957152 -0.285989 0.045289 0.215651 0.064249 255 239 242
-0.059221 0.001472 0.163024 -0.479324 -0.861202 0.168889 0.216046 0.073567 255 239 242
-0.076731 0.031039 0.100673 -0.991668 -0.126347 0.024415 0.214830 0.064863 255 240 243
-0.071002 0.022013 0.181896 -0.707083 -0.483352 0.516098 0.215477 0.075576 255 240 243
-0.076731 0.028375 -0.004626 -0.992431 -0.122562 0.006897 0.214073 0.044693 255 239 242
-0.070957 0.003688 -0.141486 -0.511246 -0.859249 0.016480 0.215948 0.027467 255 239 242
-0.076731 0.015469 -0.152621 -0.991607 -0.129124 0.003235 0.214423 0.026124 255 239 242
0.038365 0.015469 -0.300616 0.000000 -0.306986 -0.951689 0.173771 0.013226 255 240 243
0.076730 0.015469 -0.300616 0.624439 -0.251167 -0.739555 0.178280 0.012359 255 249 250
0.070957 0.003688 0.089538 0.670156 -0.741356 0.034822 0.205280 0.019933 255 239 242
0.076730 0.031039 0.100673 0.991668 -0.126347 0.024415 0.203841 0.018713 255 239 242
0.073135 0.031512 0.185389 0.761193 -0.102939 0.640248 0.203785 0.009367 255 239 242
-0.035501 0.022013 0.194381 -0.167791 -0.327952 0.929655 0.164090 0.072725 255 239 242
-0.036568 0.035235 0.195325 -0.155339 0.012024 0.987762 0.163995 0.073397 255 255 255
-0.035501 0.022013 0.194381 -0.167791 -0.327952 0.929655 0.164090 0.072725 255 255 255
-0.073135 0.031512 0.185389 -0.761193 -0.102939 0.640248 0.159629 0.074640 255 255 255
-0.071002 0.022013 0.181896 -0.707083 -0.483352 0.516098 0.159850 0.073927 255 255 255
0.035479 0.002428 -0.141486 0.017731 -0.999817 -0.004578 0.172159 0.030258 255 239 242
-0.035479 0.093797 -0.004626 -0.089328 0.988372 -0.122806 0.140179 0.088904 255 255 255
-0.035479 0.054657 -0.137189 -0.045289 0.983551 -0.174780 0.142291 0.115330 255 239 242
-0.070957 0.054657 -0.120712 -0.680105 0.720634 -0.134556 0.135232 0.115533 255 239 242
-0.070957 0.054657 -0.120712 -0.680105 0.720634 -0.134556 0.194199 0.025821 255 239 242
0.065014 0.088861 0.001106 0.655812 0.752770 -0.056673 0.160232 0.089277 255 255 255
0.070957 0.054657 -0.120712 0.680105 0.720634 -0.134556 0.177041 0.028252 255 239 242
0.059161 0.056702 0.168899 0.139317 0.886380 0.441450 0.140077 0.122552 255 255 255
0.067632 0.055309 0.168899 0.578234 0.735466 0.353160 0.177607 0.073886 255 255 255
-0.067632 0.055309 0.168899 -0.578234 0.735466 0.353160 0.194841 0.071339 255 255 255
-0.059161 0.056702 0.168899 -0.139317 0.886380 0.441450 0.173363 0.124349 255 255 255
0.073135 0.031512 0.185389 0.761193 -0.102939 0.640248 0.548699 0.234102 255 255 255
0.067632 0.055309 0.168899 0.578234 0.735466 0.353160 0.215670 0.045366 255 255 255
0.073135 0.031512 0.185389 0.761193 -0.102939 0.640248 0.177391 0.070279 255 255 255
0.076730 0.015469 -0.300616 0.624439 -0.251167 -0.739555 0.204600 0.077179 255 255 255
0.076730 0.015469 -0.300616 0.624439 -0.251167 -0.739555 0.204600 0.077179 255 249 250
0.035479 0.040620 -0.287741 0.038423 0.916105 -0.399030 0.364133 0.382379 255 239 242
-0.076731 0.015469 -0.300616 -0.624439 -0.251167 -0.739555 0.217444 0.008982 255 255 255
-0.075107 0.035063 -0.294353 -0.602344 0.574633 -0.554003 0.003173 0.375752 255 253 254
-0.076731 0.015469 -0.300616 -0.624439 -0.251167 -0.739555 0.160579 0.016396 255 255 255
-0.073135 0.031512 0.185389 -0.761193 -0.102939 0.640248 0.214728 0.076860 255 255 255
-0.073135 0.031512 0.185389 -0.761193 -0.102939 0.640248 0.214728 0.076860 255 240 243
-0.065014 0.088861 0.001106 -0.655812 0.752770 -0.056673 0.133106 0.089129 255 255 255
3 0 1 2
3 3 4 5
3 6 7 8
3 9 10 11
3 12 13 4
3 14 15 16
3 17 18 19
3 20 21 22
3 23 24 25
3 26 27 28
3 29 30 31
3 32 33 34
3 35 36 37
3 38 39 40
3 41 42 43
3 44 45 46
3 47 48 49
3 50 51 52
3 53 54 55
3 56 57 58
3 28 27 59
3 60 61 62
3 63 64 65
3 66 67 68
3 69 70 71
3 72 69 73
3 74 66 75
3 76 77 78
3 79 80 81
3 82 63 80
3 83 60 84
3 78 77 85
3 64 61 60
3 86 59 57
3 87 86 56
3 87 88 28
3 8 89 58
3 7 90 89
3 91 56 89
3 92 55 93
3 58 92 94
3 57 53 92
3 95 52 49
3 96 97 98
3 97 99 100
3 101 47 102
3 103 104 105
3 96 106 104
3 107 44 94
3 108 109 110
3 111 112 109
3 113 43 40
3 114 113 39
3 115 41 113
3 116 38 117
3 118 119 120
3 119 121 39
3 122 37 123
3 124 122 125
3 126 35 122
3 127 34 31
3 128 127 30
3 129 130 131
3 132 29 133
3 134 135 136
3 137 138 30
3 139 28 88
3 140 139 141
3 142 26 139
3 143 25 22
3 144 143 21
3 145 23 143
3 146 20 147
3 148 149 20
3 149 150 21
3 151 19 152
3 153 151 154
3 155 17 151
3 17 14 156
3 155 157 14
3 157 24 15
3 26 12 3
3 142 158 12
3 158 159 13
3 35 9 160
3 126 161 9
3 161 162 10
3 163 8 46
3 111 164 165
3 164 166 167
3 168 5 54
3 59 168 53
3 27 3 168
3 169 170 171
3 71 70 170
3 68 67 1
3 172 0 2
3 168 3 5
3 163 6 8
3 160 9 11
3 3 12 4
3 156 14 16
3 151 17 19
3 147 20 22
3 143 23 25
3 139 26 28
3 133 29 31
3 127 32 34
3 122 35 37
3 117 38 40
3 113 41 43
3 94 44 46
3 102 47 49
3 95 50 52
3 92 53 55
3 89 56 58
3 86 28 59
3 84 60 62
3 80 63 65
3 75 66 68
3 73 69 71
3 173 72 73
3 174 74 75
3 175 76 78
3 176 79 81
3 79 82 80
3 177 83 84
3 178 78 85
3 65 64 60
3 56 86 57
3 91 87 56
3 86 87 28
3 46 8 58
3 8 7 89
3 90 91 89
3 94 92 93
3 46 58 94
3 58 57 92
3 48 95 49
3 106 96 98
3 98 97 100
3 179 101 102
3 180 103 105
3 103 96 104
3 93 107 94
3 181 108 110
3 108 111 109
3 39 113 40
3 121 114 39
3 114 115 113
3 182 116 117
3 116 118 120
3 120 119 39
3 125 122 123
3 183 124 125
3 124 126 122
3 30 127 31
3 138 128 30
3 184 129 131
3 185 132 133
3 186 134 136
3 29 137 30
3 141 139 88
3 187 140 141
3 140 142 139
3 21 143 22
3 150 144 21
3 144 145 143
3 188 146 147
3 146 148 20
3 20 149 21
3 154 151 152
3 189 153 154
3 153 155 151
3 18 17 156
3 17 155 14
3 14 157 15
3 27 26 3
3 26 142 12
3 12 158 13
3 36 35 160
3 35 126 9
3 9 161 10
3 45 163 46
3 112 111 165
3 165 164 167
3 53 168 54
3 57 59 53
3 59 27 168
3 190 169 171
3 169 71 170
3 0 68 1
