ply
format ascii 1.0
comment Created by Blender 2.74 (sub 0) - www.blender.org, source file: ''
element vertex 77
property float x
property float y
property float z
property float nx
property float ny
property float nz
property float s
property float t
property uchar red
property uchar green
property uchar blue
element face 80
property list uchar uint vertex_indices
end_header
0.000000 -0.030691 0.000000 0.000000 -1.000000 0.000000 0.395145 0.483703 255 255 255
0.013053 -0.026107 0.009484 0.425306 -0.850642 0.309000 0.392760 0.476585 255 255 255
-0.004986 -0.026107 0.015345 -0.162450 -0.850642 0.499985 0.398467 0.478029 255 255 255
0.022208 -0.013725 0.016135 0.723594 -0.447188 0.525712 0.389861 0.470592 255 255 255
0.026107 -0.016135 0.000000 0.850642 -0.525712 0.000000 0.386396 0.476581 255 255 255
-0.016135 -0.026107 0.000000 -0.525712 -0.850642 0.000000 0.398735 0.486624 255 255 255
-0.004986 -0.026107 -0.015345 -0.162450 -0.850642 -0.499985 0.393195 0.490492 255 255 255
0.013053 -0.026107 -0.009484 0.425306 -0.850642 -0.309000 0.389502 0.484288 255 255 255
0.029189 0.000000 0.009484 0.951048 0.000000 0.309000 0.385063 0.470317 255 255 255
-0.008483 -0.013725 0.026107 -0.276376 -0.447218 0.850642 0.403657 0.466239 255 255 255
0.008068 -0.016135 0.024829 0.262856 -0.525712 0.808985 0.401941 0.470329 255 255 255
0.000000 0.000000 0.030691 0.000000 0.000000 1.000000 0.398939 0.463103 255 255 255
-0.027451 -0.013725 0.000000 -0.894406 -0.447188 0.000000 0.413248 0.458679 255 255 255
-0.021121 -0.016135 0.015345 -0.688162 -0.525712 0.499985 0.408719 0.463122 255 255 255
-0.029189 0.000000 0.009484 -0.951048 0.000000 0.309000 0.408777 0.454209 255 255 255
-0.008483 -0.013725 -0.026107 -0.276376 -0.447218 -0.850642 0.417241 0.453704 255 255 255
-0.021121 -0.016135 -0.015345 -0.688162 -0.525712 -0.499985 0.422974 0.453427 255 255 255
-0.018040 0.000000 -0.024829 -0.587756 0.000000 -0.809015 0.419417 0.460929 255 255 255
0.022208 -0.013725 -0.016135 0.723594 -0.447188 -0.525712 0.389037 0.466226 255 255 255
0.008068 -0.016135 -0.024829 0.262856 -0.525712 -0.808985 0.384334 0.463094 255 255 255
0.018040 0.000000 -0.024829 0.587756 0.000000 -0.809015 0.388516 0.458638 254 255 252
0.022208 -0.013725 0.016135 0.723594 -0.447188 0.525712 0.419150 0.490423 255 255 255
0.029189 0.000000 0.009484 0.951048 0.000000 0.309000 0.415493 0.484593 255 255 255
0.018040 0.000000 0.024829 0.587756 0.000000 0.809015 0.421924 0.484304 255 255 255
-0.018040 0.000000 0.024829 -0.587756 0.000000 0.809015 0.403132 0.458650 255 255 255
-0.029189 0.000000 -0.009484 -0.951048 0.000000 -0.309000 0.413713 0.451474 255 255 255
-0.008483 -0.013725 -0.026107 -0.276376 -0.447218 -0.850642 0.417241 0.453704 254 255 252
-0.018040 0.000000 -0.024829 -0.587756 0.000000 -0.809015 0.419417 0.460929 254 255 252
0.000000 0.000000 -0.030691 0.000000 0.000000 -1.000000 0.413696 0.459184 254 255 252
0.029189 0.000000 -0.009484 0.951048 0.000000 -0.309000 0.394068 0.463099 255 255 253
0.008483 0.013725 0.026107 0.276376 0.447218 0.850642 0.424156 0.477084 255 255 255
0.021121 0.016135 0.015345 0.688162 0.525712 0.499985 0.418431 0.476751 255 255 255
0.004986 0.026107 0.015345 0.162450 0.850642 0.499985 0.422018 0.470389 255 255 255
-0.022208 0.013725 0.016135 -0.723594 0.447188 0.525712 0.413214 0.483730 255 255 255
-0.008068 0.016135 0.024829 -0.262856 0.525712 0.808985 0.410685 0.490514 255 255 255
-0.013053 0.026107 0.009484 -0.425306 0.850642 0.309000 0.407994 0.484303 255 255 255
-0.022208 0.013725 -0.016135 -0.723594 0.447188 -0.525712 0.407648 0.470613 255 255 255
-0.026107 0.016135 0.000000 -0.850642 0.525712 0.000000 0.411119 0.476606 255 255 255
-0.013053 0.026107 -0.009484 -0.425306 0.850642 -0.309000 0.404721 0.476593 255 255 255
0.008483 0.013725 -0.026107 0.276376 0.447218 -0.850642 0.389138 0.451062 254 255 252
-0.008068 0.016135 -0.024829 -0.262856 0.525712 -0.808985 0.387480 0.446982 254 255 252
0.004986 0.026107 -0.015345 0.162450 0.850642 -0.499985 0.393496 0.446985 254 255 252
0.027451 0.013725 0.000000 0.894406 0.447188 0.000000 0.398561 0.458644 254 255 251
0.021121 0.016135 -0.015345 0.688162 0.525712 -0.499985 0.394126 0.454186 254 255 252
0.016135 0.026107 0.000000 0.525712 0.850642 0.000000 0.399023 0.451438 255 255 255
0.016135 0.026107 0.000000 0.525712 0.850642 0.000000 0.398735 0.486624 255 255 255
0.004986 0.026107 -0.015345 0.162450 0.850642 -0.499985 0.399003 0.478029 254 255 252
0.000000 0.030691 0.000000 0.000000 1.000000 0.000000 0.402331 0.483708 255 255 255
-0.013053 0.026107 -0.009484 -0.425306 0.850642 -0.309000 0.404721 0.476593 254 255 252
-0.008068 0.016135 -0.024829 -0.262856 0.525712 -0.808985 0.402122 0.470329 254 255 252
-0.022208 0.013725 -0.016135 -0.723594 0.447188 -0.525712 0.407648 0.470613 254 255 252
0.004986 0.026107 0.015345 0.162450 0.850642 0.499985 0.404289 0.490501 255 255 255
-0.008068 0.016135 0.024829 -0.262856 0.525712 0.808985 0.427723 0.474009 255 255 255
0.016135 0.026107 0.000000 0.525712 0.850642 0.000000 0.415585 0.470678 255 255 255
0.027451 0.013725 0.000000 0.894406 0.447188 0.000000 0.413214 0.477575 254 255 251
0.000000 0.000000 -0.030691 0.000000 0.000000 -1.000000 0.384392 0.454180 254 255 252
-0.008068 0.016135 -0.024829 -0.262856 0.525712 -0.808985 0.416599 0.467038 254 255 252
-0.022208 0.013725 -0.016135 -0.723594 0.447188 -0.525712 0.422165 0.467062 254 255 252
-0.029189 0.000000 -0.009484 -0.951048 0.000000 -0.309000 0.412479 0.470353 255 255 255
-0.026107 0.016135 0.000000 -0.850642 0.525712 0.000000 0.408140 0.447006 255 255 255
-0.022208 0.013725 0.016135 -0.723594 0.447188 0.525712 0.403755 0.451074 255 255 255
-0.008068 0.016135 0.024829 -0.262856 0.525712 0.808985 0.398997 0.454189 255 255 255
0.000000 0.000000 0.030691 0.000000 0.000000 1.000000 0.427672 0.482612 255 255 255
0.008068 -0.016135 -0.024829 0.262856 -0.525712 -0.808985 0.413722 0.450604 255 255 255
-0.029189 0.000000 -0.009484 -0.951048 0.000000 -0.309000 0.425869 0.461279 255 255 255
-0.022208 0.013725 -0.016135 -0.723594 0.447188 -0.525712 0.422165 0.467062 255 255 255
-0.027451 -0.013725 0.000000 -0.894406 -0.447188 0.000000 0.428216 0.454299 255 255 255
0.008068 -0.016135 0.024829 0.262856 -0.525712 0.808985 0.424723 0.490449 255 255 255
0.029189 0.000000 0.009484 0.951048 0.000000 0.309000 0.398929 0.465860 255 255 255
0.026107 -0.016135 0.000000 0.850642 -0.525712 0.000000 0.393343 0.470322 255 255 255
0.008068 -0.016135 -0.024829 0.262856 -0.525712 -0.808985 0.386832 0.490489 255 255 255
0.022208 -0.013725 -0.016135 0.723594 -0.447188 -0.525712 0.384318 0.483698 255 255 255
-0.004986 -0.026107 -0.015345 -0.162450 -0.850642 -0.499985 0.419466 0.447049 255 255 255
-0.016135 -0.026107 0.000000 -0.525712 -0.850642 0.000000 0.425915 0.447397 255 255 255
-0.016135 -0.026107 0.000000 -0.525712 -0.850642 0.000000 0.413620 0.465896 255 255 255
-0.004986 -0.026107 0.015345 -0.162450 -0.850642 0.499985 0.407987 0.470341 255 255 255
0.008068 -0.016135 0.024829 0.262856 -0.525712 0.808985 0.395361 0.470322 255 255 255
3 0 1 2
3 3 1 4
3 0 2 5
3 0 5 6
3 0 6 7
3 3 4 8
3 9 10 11
3 12 13 14
3 15 16 17
3 18 19 20
3 21 22 23
3 9 11 24
3 12 14 25
3 26 27 28
3 18 20 29
3 30 31 32
3 33 34 35
3 36 37 38
3 39 40 41
3 42 43 44
3 45 46 47
3 44 43 41
3 43 39 41
3 46 48 47
3 46 49 48
3 49 50 48
3 48 35 47
3 38 37 35
3 37 33 35
3 35 51 47
3 35 34 51
3 52 30 32
3 51 45 47
3 32 31 53
3 31 54 53
3 29 43 42
3 29 20 43
3 20 39 43
3 55 40 39
3 28 27 56
3 27 57 56
3 58 37 36
3 25 14 59
3 14 60 59
3 24 61 60
3 24 11 61
3 62 30 52
3 23 31 30
3 23 22 31
3 22 54 31
3 20 55 39
3 20 19 55
3 63 26 28
3 17 64 65
3 17 16 64
3 16 66 64
3 14 24 60
3 14 13 24
3 13 9 24
3 62 23 30
3 62 67 23
3 67 21 23
3 68 29 42
3 68 69 29
3 69 18 29
3 7 70 71
3 7 6 70
3 72 15 63
3 72 16 15
3 72 73 16
3 73 66 16
3 74 13 12
3 74 75 13
3 75 9 13
3 4 7 71
3 4 1 7
3 1 0 7
3 75 10 9
3 2 1 76
3 1 3 76
