ply
format ascii 1.0
comment Created by Blender 2.74 (sub 0) - www.blender.org, source file: ''
element vertex 249
property float x
property float y
property float z
property float nx
property float ny
property float nz
property float s
property float t
property uchar red
property uchar green
property uchar blue
element face 257
property list uchar uint vertex_indices
end_header
-0.188935 0.018211 0.188935 -0.000000 1.000000 0.000000 0.056443 0.799445 255 255 255
-0.251913 0.018211 0.188935 -0.000000 1.000000 0.000000 0.056597 0.812441 255 234 137
-0.251913 0.018211 0.251913 -0.000000 1.000000 0.000000 0.044312 0.811422 255 234 137
0.328162 0.018211 -0.251912 0.000000 1.000000 0.000000 0.172517 0.662655 255 234 137
0.251913 0.018211 0.000000 0.000000 1.000000 0.000000 0.109162 0.690811 255 255 255
0.328162 0.018211 0.251913 0.000000 1.000000 0.000000 0.062750 0.671989 255 234 137
0.703097 0.018211 0.251913 -0.000000 0.000000 1.000000 0.267644 0.706008 255 255 255
0.703097 0.031513 0.251913 -0.000000 0.000000 1.000000 0.271557 0.705205 255 255 255
0.600706 0.031513 0.251913 -0.000000 0.000000 1.000000 0.267979 0.732431 255 255 255
0.703098 0.018211 -0.251912 -0.000000 -0.000000 -1.000000 0.267644 0.706008 255 255 255
0.703098 0.031513 -0.251912 -0.000000 -0.000000 -1.000000 0.263752 0.706798 255 255 255
0.803693 0.031513 -0.251912 -0.000000 -0.000000 -1.000000 0.268837 0.678721 255 255 255
0.803692 0.018211 0.251913 -0.000000 0.000000 1.000000 0.272727 0.677933 255 249 223
0.803692 0.031513 0.251913 -0.000000 0.000000 1.000000 0.276638 0.677132 255 253 245
0.919810 0.018211 -0.251912 1.000000 0.000000 0.000001 0.311325 0.767410 255 255 255
0.919810 0.031513 -0.251912 1.000000 0.000000 0.000001 0.307208 0.768382 255 255 255
0.919809 0.031513 0.251913 1.000000 0.000000 0.000001 0.326436 0.634245 255 255 255
0.803693 0.018211 -0.251912 -0.000000 -0.000000 -1.000000 0.272727 0.677933 255 255 255
0.919810 0.031513 -0.251912 -0.000000 -0.000000 -1.000000 0.276602 0.644878 255 255 255
0.919809 0.018211 0.251913 -0.000000 0.000000 1.000000 0.280486 0.644093 255 234 139
0.919809 0.031513 0.251913 -0.000000 0.000000 1.000000 0.284390 0.643298 255 236 147
0.328162 0.031513 -0.251912 0.000000 1.000000 0.000000 0.200824 0.789057 255 234 137
0.328162 0.031513 0.251913 0.000000 1.000000 0.000000 0.214849 0.883213 255 234 137
0.416434 0.031513 0.251913 0.000000 1.000000 0.000000 0.191941 0.885651 255 255 255
0.703098 0.043493 -0.251912 -0.000000 -0.000000 -1.000000 0.260265 0.707498 255 255 255
0.803693 0.043493 -0.251912 -0.000000 -0.000000 -1.000000 0.265352 0.679419 255 255 255
0.803692 0.043493 0.251913 -0.000000 0.000000 1.000000 0.280179 0.676400 255 255 255
0.703097 0.043493 0.251913 -0.000000 0.000000 1.000000 0.275100 0.704470 255 255 255
0.919810 0.043493 -0.251912 1.000000 0.000000 0.000001 0.303515 0.769244 255 255 255
0.919809 0.043493 0.251913 1.000000 0.000000 0.000001 0.322729 0.635078 255 255 255
0.919810 0.043493 -0.251912 -0.000000 -0.000000 -1.000000 0.273122 0.645573 255 255 255
0.919809 0.043493 0.251913 -0.000000 0.000000 1.000000 0.287925 0.642570 255 238 159
0.600706 0.018211 -0.251912 -0.000000 -0.000000 -1.000000 0.264066 0.733234 255 255 255
0.600706 0.031513 -0.251912 -0.000000 -0.000000 -1.000000 0.260175 0.734023 255 255 255
0.600706 0.018211 0.251913 -0.000000 0.000000 1.000000 0.264066 0.733234 255 255 255
0.513663 0.031513 0.251913 -0.000000 0.000000 1.000000 0.266127 0.754384 255 255 255
0.513663 0.018211 -0.251912 -0.000000 -0.000000 -1.000000 0.262219 0.755185 255 255 255
0.513663 0.031513 -0.251912 -0.000000 -0.000000 -1.000000 0.258331 0.755970 255 255 255
0.513663 0.018211 0.251913 -0.000000 0.000000 1.000000 0.262219 0.755185 255 255 255
0.416434 0.031513 0.251913 -0.000000 0.000000 1.000000 0.265274 0.777515 255 255 255
0.416434 0.018211 -0.251912 -0.000000 -0.000000 -1.000000 0.261374 0.778308 255 255 255
0.416434 0.031513 -0.251912 -0.000000 -0.000000 -1.000000 0.257495 0.779086 255 255 255
0.416434 0.018211 0.251913 -0.000000 0.000000 1.000000 0.261374 0.778308 255 255 254
0.328162 0.031513 0.251913 -0.000000 0.000000 1.000000 0.265546 0.797196 255 234 137
0.328162 0.018211 -0.251912 -0.000000 -0.000000 -1.000000 0.261658 0.797980 255 255 255
0.328162 0.031513 -0.251912 -0.000000 -0.000000 -1.000000 0.257789 0.798748 255 255 255
0.328162 0.018211 0.251913 -1.000000 -0.000000 -0.000001 0.233723 0.783682 255 234 137
0.328162 0.031513 0.251913 -1.000000 -0.000000 -0.000001 0.237474 0.783005 255 234 137
0.328162 0.031513 -0.251912 -1.000000 -0.000000 -0.000001 0.250957 0.878132 255 234 137
0.416434 0.043493 -0.251912 0.000000 1.000000 0.000000 0.177743 0.792164 255 234 137
0.416434 0.043493 0.251913 0.000000 1.000000 0.000000 0.191941 0.885651 255 255 255
0.513663 0.043493 0.251913 0.000000 1.000000 0.000000 0.167634 0.887490 255 255 255
0.803692 0.057829 0.251913 -0.000000 0.000000 1.000000 0.284440 0.675511 255 255 255
0.703097 0.057829 0.251913 -0.000000 0.000000 1.000000 0.279364 0.703576 255 255 255
0.919810 0.057829 -0.251912 1.000000 0.000000 0.000001 0.299116 0.770259 255 255 255
0.919809 0.057829 0.251913 1.000000 0.000000 0.000001 0.318315 0.636061 255 255 255
0.803693 0.057829 -0.251912 -0.000000 -0.000000 -1.000000 0.261205 0.680242 255 255 255
0.919810 0.057829 -0.251912 -0.000000 -0.000000 -1.000000 0.268981 0.646393 255 255 255
0.919809 0.057829 0.251913 -0.000000 0.000000 1.000000 0.292176 0.641687 255 240 171
0.600706 0.043493 0.251913 -0.000000 0.000000 1.000000 0.271520 0.731695 255 255 255
0.600706 0.043493 -0.251912 -0.000000 -0.000000 -1.000000 0.256688 0.734721 255 255 255
0.513663 0.043493 0.251913 -0.000000 0.000000 1.000000 0.269664 0.753651 255 255 255
0.513663 0.043493 -0.251912 -0.000000 -0.000000 -1.000000 0.254847 0.756664 255 255 255
0.416434 0.043493 0.251913 -0.000000 0.000000 1.000000 0.268803 0.776787 255 255 255
0.416434 0.043493 -0.251912 -0.000000 -0.000000 -1.000000 0.254018 0.779772 255 255 255
0.416434 0.031513 0.251913 -1.000000 -0.000000 -0.000001 0.294094 0.771402 255 255 255
0.416434 0.043493 0.251913 -1.000000 -0.000000 -0.000001 0.297748 0.770572 255 255 255
0.416434 0.043493 -0.251912 -1.000000 -0.000000 -0.000001 0.309746 0.867125 255 234 137
0.513663 0.057829 -0.251912 0.000000 1.000000 0.000000 0.233723 0.783682 255 234 137
0.513663 0.057829 0.251913 0.000000 1.000000 0.000000 0.247276 0.878714 255 255 255
0.600706 0.057829 0.251913 0.000000 1.000000 0.000000 0.223620 0.882112 255 255 255
0.919810 0.070283 -0.251912 1.000000 0.000000 0.000001 0.295311 0.771127 255 255 255
0.919809 0.070283 0.251913 1.000000 0.000000 0.000001 0.314497 0.636903 255 255 255
0.803693 0.070283 -0.251912 -0.000000 -0.000000 -1.000000 0.257623 0.680944 255 255 255
0.919810 0.070283 -0.251912 -0.000000 -0.000000 -1.000000 0.265403 0.647094 255 255 255
0.919809 0.070283 0.251913 -0.000000 0.000000 1.000000 0.295889 0.640908 255 238 159
0.803692 0.070283 0.251913 -0.000000 0.000000 1.000000 0.288160 0.674726 255 255 255
0.703098 0.057829 -0.251912 -0.000000 -0.000000 -1.000000 0.256116 0.708320 255 255 255
0.600706 0.057829 0.251913 -0.000000 0.000000 1.000000 0.275781 0.730800 255 255 255
0.600706 0.057829 -0.251912 -0.000000 -0.000000 -1.000000 0.252538 0.735541 255 255 255
0.513663 0.057829 0.251913 -0.000000 0.000000 1.000000 0.273919 0.752756 255 255 255
0.513663 0.057829 -0.251912 -0.000000 -0.000000 -1.000000 0.250701 0.757478 255 255 255
0.513663 0.043493 0.251913 -1.000000 -0.000000 -0.000001 0.223026 0.882190 255 255 255
0.513663 0.057829 0.251913 -1.000000 -0.000000 -0.000001 0.219206 0.882677 255 255 255
0.513663 0.057829 -0.251912 -1.000000 -0.000000 -0.000001 0.205229 0.788399 255 234 137
0.600706 0.070283 -0.251912 0.000000 1.000000 0.000000 0.228805 0.653863 255 234 137
0.600706 0.070283 0.251913 0.000000 1.000000 0.000000 0.209697 0.787711 255 255 255
0.703097 0.070283 0.251913 0.000000 1.000000 0.000000 0.182603 0.791559 255 255 255
0.803693 0.084606 -0.251912 -0.000000 -0.000000 -1.000000 0.253527 0.681738 255 255 255
0.919810 0.084606 -0.251912 -0.000000 -0.000000 -1.000000 0.261312 0.647888 255 255 255
0.919809 0.084606 0.251913 -0.000000 0.000000 1.000000 0.300181 0.640000 255 234 138
0.803692 0.084606 0.251913 -0.000000 0.000000 1.000000 0.292462 0.673809 255 255 249
0.703097 0.070283 0.251913 -0.000000 0.000000 1.000000 0.283087 0.702786 255 255 255
0.703098 0.070283 -0.251912 -0.000000 -0.000000 -1.000000 0.252532 0.709023 255 255 255
0.600706 0.070283 0.251913 -0.000000 0.000000 1.000000 0.279501 0.730008 255 255 255
0.600706 0.070283 -0.251912 -0.000000 -0.000000 -1.000000 0.248953 0.736239 255 255 255
0.600706 0.057829 0.251913 -1.000000 -0.000000 -0.000001 0.290310 0.772252 255 255 255
0.600706 0.070283 0.251913 -1.000000 -0.000000 -0.000001 0.294094 0.771402 255 255 255
0.600706 0.070283 -0.251912 -1.000000 -0.000000 -0.000001 0.306199 0.867872 255 234 137
0.703097 0.084606 0.251913 0.000000 1.000000 0.000000 0.163594 0.717916 255 255 255
0.803692 0.084606 0.251913 0.000000 1.000000 0.000000 0.136055 0.722906 255 255 249
0.803693 0.084606 -0.251912 0.000000 1.000000 0.000000 0.151295 0.585654 255 234 137
0.919809 0.101056 0.251913 -0.000000 0.000000 1.000000 0.305140 0.638939 255 234 137
0.803692 0.101056 0.251913 -0.000000 0.000000 1.000000 0.297432 0.672738 255 239 161
0.919810 0.084606 -0.251912 1.000000 0.000000 0.000001 0.290956 0.772108 255 255 255
0.919809 0.084606 0.251913 1.000000 0.000000 0.000001 0.310129 0.637859 255 255 255
0.703097 0.084606 0.251913 -0.000000 0.000000 1.000000 0.287392 0.701864 255 255 255
0.703098 0.084606 -0.251912 -0.000000 -0.000000 -1.000000 0.248435 0.709815 255 255 255
0.703097 0.070283 0.251913 -1.000000 -0.000000 -0.000001 0.302525 0.868635 255 255 255
0.703097 0.084606 0.251913 -1.000000 -0.000000 -0.000001 0.298317 0.869497 255 255 255
0.703098 0.084606 -0.251912 -1.000000 -0.000000 -0.000001 0.285980 0.773213 255 234 137
0.803692 0.101056 0.251913 0.000000 1.000000 0.000000 0.182603 0.791559 255 239 161
0.919809 0.101056 0.251913 0.000000 1.000000 0.000000 0.153408 0.794766 255 234 137
0.919810 0.101056 -0.251912 0.000000 1.000000 0.000000 0.172517 0.662655 255 234 137
0.803693 0.101056 -0.251912 -0.000000 -0.000000 -1.000000 0.248853 0.682632 255 255 255
0.919810 0.101056 -0.251912 -0.000000 -0.000000 -1.000000 0.256643 0.648782 255 255 255
0.919810 0.101056 -0.251912 1.000000 0.000000 0.000001 0.285980 0.773213 255 255 255
0.919809 0.101056 0.251913 1.000000 0.000000 0.000001 0.305140 0.638939 255 255 255
0.803692 0.084606 0.251913 -1.000000 -0.000000 -0.000001 0.219206 0.882677 255 255 249
0.803692 0.101056 0.251913 -1.000000 -0.000000 -0.000001 0.214849 0.883213 255 239 161
0.803693 0.101056 -0.251912 -1.000000 -0.000000 -0.000001 0.200824 0.789057 255 234 137
0.062978 0.018211 0.188935 -0.000000 1.000000 0.000000 0.060947 0.741714 255 255 255
-0.000000 0.018211 0.188935 -0.000000 1.000000 0.000000 0.059023 0.756994 255 255 255
-0.000000 0.018211 0.251913 -0.000000 1.000000 0.000000 0.046814 0.756477 255 234 137
-0.000000 0.038351 -0.062978 0.000000 1.000000 0.000000 0.437989 0.376582 255 255 255
-0.000000 0.038351 0.000000 0.000000 1.000000 0.000000 0.437230 0.435469 255 255 255
0.062978 0.038351 0.000000 0.000000 1.000000 0.000000 0.378322 0.436295 255 255 255
-0.188935 0.018211 -0.062978 -0.000000 1.000000 0.000000 0.109280 0.800354 255 255 255
-0.251913 0.018211 -0.062978 -0.000000 1.000000 0.000000 0.109538 0.813752 255 234 137
-0.251913 0.018211 0.000000 -0.000000 1.000000 0.000000 0.095696 0.813873 255 234 137
-0.125956 0.018211 -0.062978 -0.304591 0.952483 -0.000000 0.109543 0.786334 255 255 255
-0.125956 0.018211 0.000000 -0.304591 0.952483 -0.000000 0.095739 0.786655 255 255 255
-0.062978 0.038351 0.000000 -0.304591 0.952483 -0.000000 0.096554 0.772134 255 255 255
-0.125956 0.018211 -0.188934 0.000000 1.000000 0.000000 0.138478 0.784727 255 255 255
-0.125956 0.018211 -0.125956 0.000000 1.000000 0.000000 0.123785 0.785695 255 255 255
-0.062978 0.018211 -0.125956 0.000000 1.000000 0.000000 0.124580 0.770948 255 255 255
-0.188935 0.018211 -0.188934 -0.000000 1.000000 0.000000 0.138240 0.798945 255 255 255
-0.251913 0.018211 -0.188934 -0.000000 1.000000 0.000000 0.138528 0.812523 255 234 137
-0.251913 0.018211 -0.125956 -0.000000 1.000000 0.000000 0.123811 0.813307 255 234 137
0.125956 0.018211 -0.062978 0.000000 1.000000 0.000000 0.116179 0.724190 255 255 255
0.125956 0.018211 0.000000 0.000000 1.000000 0.000000 0.102372 0.725026 255 255 255
0.188934 0.018211 0.000000 0.000000 1.000000 0.000000 0.105474 0.708183 255 255 255
0.125956 0.018211 -0.188934 0.000000 1.000000 0.000000 0.145118 0.721655 255 235 140
0.125956 0.018211 -0.125956 0.000000 1.000000 0.000000 0.130424 0.723067 255 255 255
0.188935 0.018211 -0.125956 0.000000 1.000000 0.000000 0.133561 0.705957 255 255 255
-0.000000 0.018211 -0.188934 0.000000 1.000000 0.000000 0.140625 0.754402 255 255 255
-0.000000 0.018211 -0.125956 0.000000 1.000000 0.000000 0.125942 0.755585 255 255 255
0.062978 0.018211 -0.125956 0.000000 1.000000 0.000000 0.127886 0.739618 255 255 254
0.125956 0.018211 0.188935 0.000000 1.000000 0.000000 0.063420 0.725888 255 255 255
0.125956 0.018211 0.251913 0.000000 1.000000 0.000000 0.051192 0.725684 255 234 137
0.188934 0.018211 0.251913 0.000000 1.000000 0.000000 0.054194 0.709498 255 234 137
0.125956 0.018211 0.062978 0.000000 1.000000 0.000000 0.088989 0.725579 255 255 255
0.125956 0.018211 0.125957 0.000000 1.000000 0.000000 0.076012 0.725860 255 255 255
0.188934 0.018211 0.125957 0.000000 1.000000 0.000000 0.079067 0.709333 255 255 255
-0.000000 0.038351 0.062978 -0.000000 0.952483 0.304591 0.084556 0.757281 255 255 255
-0.000000 0.018211 0.125956 -0.000000 0.952483 0.304591 0.071597 0.757268 255 255 255
0.062978 0.018211 0.125957 -0.000000 0.952483 0.304591 0.073524 0.741842 255 255 255
-0.125956 0.018211 0.188935 0.000000 1.000000 0.000000 0.056784 0.785868 255 255 255
-0.125957 0.018211 0.251913 0.000000 1.000000 0.000000 0.044554 0.785079 255 255 255
-0.062978 0.018211 0.251913 0.000000 1.000000 0.000000 0.045424 0.771057 255 253 246
-0.125956 0.018211 0.062978 0.000000 1.000000 0.000000 0.082357 0.786674 255 255 255
-0.125956 0.018211 0.125956 0.000000 1.000000 0.000000 0.069378 0.786405 255 255 255
-0.062978 0.018211 0.125956 0.000000 1.000000 0.000000 0.070219 0.772126 255 255 255
-0.251913 0.018211 0.062978 0.000000 1.000000 0.000000 0.082271 0.813683 255 234 137
-0.251913 0.018211 0.125956 0.000000 1.000000 0.000000 0.069244 0.813200 255 234 137
-0.188935 0.018211 0.125956 0.000000 1.000000 0.000000 0.069059 0.800099 255 255 255
-0.188935 0.018211 0.062978 -0.000000 1.000000 0.000000 0.082059 0.800479 255 255 255
-0.188935 0.018211 0.000000 0.000000 1.000000 0.000000 0.095460 0.800570 255 255 255
-0.062978 0.038351 0.062978 -0.000000 0.952483 0.304591 0.083184 0.772271 255 255 255
-0.062978 0.018211 0.125956 -0.000000 0.952483 0.304591 0.070219 0.772126 255 255 255
-0.062978 0.038351 0.000000 0.000000 1.000000 0.000000 0.497766 0.436298 255 255 255
-0.062978 0.038351 0.062978 0.000000 1.000000 0.000000 0.498840 0.497028 255 255 255
-0.000000 0.038351 0.062978 0.000000 1.000000 0.000000 0.438080 0.495917 255 255 255
-0.125956 0.018211 0.062978 -0.304591 0.952483 -0.000000 0.082357 0.786674 255 255 255
-0.062978 0.038351 0.062978 -0.304591 0.952483 -0.000000 0.083184 0.772271 255 255 255
-0.062978 0.018211 0.188935 -0.000000 1.000000 0.000000 0.057639 0.771715 255 255 255
-0.000000 0.018211 0.125956 -0.000000 1.000000 0.000000 0.071597 0.757268 255 255 255
0.125956 0.018211 0.062978 0.291374 0.911154 0.291375 0.088989 0.725579 255 255 255
0.062978 0.038351 0.062978 0.291374 0.911154 0.291375 0.086487 0.741713 255 255 255
0.062978 0.018211 0.125957 0.291374 0.911154 0.291375 0.073524 0.741842 255 255 255
0.062978 0.038351 0.000000 0.304591 0.952483 0.000000 0.099857 0.741307 255 255 255
0.062978 0.038351 0.062978 0.304591 0.952483 0.000000 0.086487 0.741713 255 255 255
0.125956 0.018211 0.062978 0.304591 0.952483 0.000000 0.088989 0.725579 255 255 255
0.062978 0.038351 0.062978 0.000000 1.000000 0.000000 0.378904 0.496993 255 255 255
0.188934 0.018211 0.062978 0.000000 1.000000 0.000000 0.092068 0.708891 255 255 255
0.251913 0.018211 0.125957 0.000000 1.000000 0.000000 0.082690 0.692283 255 255 255
0.251913 0.018211 0.062978 0.000000 1.000000 0.000000 0.095726 0.691671 255 255 255
0.188934 0.018211 0.188935 0.000000 1.000000 0.000000 0.066450 0.709529 255 255 255
0.251912 0.018211 0.251913 0.000000 1.000000 0.000000 0.057741 0.692812 255 234 137
0.251913 0.018211 0.188935 0.000000 1.000000 0.000000 0.070035 0.692657 255 252 234
0.062978 0.018211 -0.188934 0.000000 1.000000 0.000000 0.142572 0.738321 255 235 141
0.062978 0.018211 -0.251913 0.000000 1.000000 0.000000 0.157722 0.736717 255 234 139
0.000000 0.018211 -0.251913 0.000000 1.000000 0.000000 0.155775 0.752899 255 255 255
0.188935 0.018211 -0.188934 0.000000 1.000000 0.000000 0.148266 0.704435 255 255 255
0.251913 0.018211 -0.125956 0.000000 1.000000 0.000000 0.137293 0.688331 255 254 251
0.188935 0.018211 -0.251912 0.000000 1.000000 0.000000 0.163427 0.702638 255 245 200
0.251913 0.018211 -0.188934 0.000000 1.000000 0.000000 0.152012 0.686706 255 250 224
0.125956 0.018211 -0.251913 0.000000 1.000000 0.000000 0.160271 0.719951 255 234 137
0.188934 0.018211 -0.062978 0.000000 1.000000 0.000000 0.119301 0.707206 255 255 255
0.251913 0.018211 -0.062978 0.000000 1.000000 0.000000 0.123013 0.689698 255 255 255
-0.188935 0.018211 -0.125956 -0.000000 1.000000 0.000000 0.123535 0.799817 255 255 255
-0.188935 0.018211 -0.251913 0.000000 1.000000 0.000000 0.153404 0.797727 255 255 255
-0.251913 0.018211 -0.251913 -0.000000 1.000000 0.000000 0.153702 0.811388 255 234 137
-0.062978 0.018211 -0.188934 -0.000000 1.000000 0.000000 0.139267 0.769876 255 255 255
-0.062978 0.018211 -0.251913 0.000000 1.000000 0.000000 0.154418 0.768473 255 255 255
-0.125956 0.018211 -0.251913 0.000000 1.000000 0.000000 0.153635 0.783420 255 255 255
-0.062978 0.038351 -0.062978 -0.000000 1.000000 0.000000 0.498833 0.377088 255 255 255
-0.062978 0.018211 -0.125956 0.000000 0.952483 -0.304591 0.124580 0.770948 255 255 255
-0.062978 0.038351 -0.062978 0.000000 0.952483 -0.304591 0.110347 0.771697 255 255 255
-0.000000 0.038351 -0.062978 0.000000 0.952483 -0.304591 0.111711 0.756453 255 255 255
-0.125956 0.018211 -0.062978 -0.000000 1.000000 0.000000 0.109543 0.786334 255 255 255
0.062978 0.038351 -0.062978 0.304591 0.952483 0.000000 0.113651 0.740612 255 255 255
0.125956 0.018211 0.000000 0.304591 0.952483 0.000000 0.102372 0.725026 255 255 255
0.062978 0.018211 -0.125956 0.291375 0.911154 -0.291374 0.127886 0.739618 255 255 255
0.062978 0.038351 -0.062978 0.291375 0.911154 -0.291374 0.113651 0.740612 255 255 255
0.125956 0.018211 -0.062978 0.291375 0.911154 -0.291374 0.116179 0.724190 255 255 255
-0.000000 0.018211 -0.125956 0.000000 0.952483 -0.304591 0.125942 0.755585 255 255 255
0.062978 0.038351 -0.062978 0.000000 0.952483 -0.304591 0.113651 0.740612 255 255 255
0.062978 0.018211 0.251913 0.000000 1.000000 0.000000 0.048733 0.741348 255 234 137
0.062978 0.018211 0.125957 -0.000000 1.000000 0.000000 0.073524 0.741842 255 255 255
-0.188935 0.018211 0.251913 -0.000000 1.000000 0.000000 0.044189 0.798535 255 255 255
0.251913 0.018211 -0.251912 0.000000 1.000000 -0.000000 0.167184 0.684823 255 255 255
0.919809 0.018211 0.251913 1.000000 0.000000 0.000001 0.330569 0.633309 255 255 255
0.919810 0.018211 -0.251912 0.000000 -0.000000 -1.000000 0.280486 0.644093 255 255 255
0.416434 0.031513 -0.251912 -0.000000 1.000000 0.000000 0.177743 0.792164 255 234 137
0.328162 0.018211 0.251913 0.000000 0.000000 1.000000 0.261658 0.797980 255 234 137
0.328162 0.018211 -0.251912 -1.000000 0.000000 -0.000001 0.247276 0.878714 255 234 137
0.513663 0.043493 -0.251912 -0.000000 1.000000 0.000000 0.153408 0.794766 255 234 137
0.416434 0.031513 -0.251912 -1.000000 0.000000 -0.000001 0.306199 0.867872 255 234 137
0.600706 0.057829 -0.251912 -0.000000 1.000000 0.000000 0.209697 0.787711 255 234 137
0.513663 0.043493 -0.251912 -1.000000 0.000000 -0.000001 0.209095 0.787805 255 234 137
0.703098 0.070283 -0.251912 -0.000000 1.000000 0.000000 0.201724 0.658359 255 234 137
0.600706 0.057829 -0.251912 -1.000000 0.000000 -0.000001 0.302525 0.868635 255 234 137
0.703098 0.084606 -0.251912 0.000000 1.000000 0.000000 0.179316 0.580734 255 234 137
0.703098 0.070283 -0.251912 -1.000000 0.000000 -0.000001 0.290310 0.772252 255 234 137
0.803693 0.101056 -0.251912 0.000000 1.000000 0.000000 0.201724 0.658359 255 234 137
0.803693 0.084606 -0.251912 -1.000000 0.000000 -0.000001 0.205229 0.788399 255 234 137
0.062978 0.038351 -0.062978 -0.000000 1.000000 0.000000 0.378734 0.377115 255 255 255
-0.062978 0.038351 -0.062978 -0.304591 0.952483 -0.000000 0.110347 0.771697 255 255 255
0.062978 0.038351 0.062978 -0.000000 0.952483 0.304591 0.086487 0.741713 255 255 255
-0.062978 0.038351 0.062978 -0.291375 0.911154 0.291375 0.083184 0.772271 255 255 255
-0.125956 0.018211 0.062978 -0.291375 0.911154 0.291375 0.082357 0.786674 255 255 255
-0.062978 0.018211 0.125956 -0.291375 0.911154 0.291375 0.070219 0.772126 255 255 255
-0.125956 0.018211 0.000000 -0.000000 1.000000 0.000000 0.095739 0.786655 255 255 255
-0.062978 0.038351 -0.062978 -0.291374 0.911154 -0.291375 0.110347 0.771697 255 255 255
-0.062978 0.018211 -0.125956 -0.291374 0.911154 -0.291375 0.124580 0.770948 255 255 255
-0.125956 0.018211 -0.062978 -0.291374 0.911154 -0.291375 0.109543 0.786334 255 255 255
0.125956 0.018211 -0.062978 0.304591 0.952483 0.000000 0.116179 0.724190 255 255 255
0.062978 0.018211 -0.125956 0.000000 0.952483 -0.304591 0.127886 0.739618 255 255 254
3 0 1 2
3 3 4 5
3 6 7 8
3 9 10 11
3 12 13 7
3 14 15 16
3 17 11 18
3 19 20 13
3 21 22 23
3 10 24 25
3 13 26 27
3 15 28 29
3 11 25 30
3 20 31 26
3 32 33 10
3 34 8 35
3 36 37 33
3 38 35 39
3 40 41 37
3 42 39 43
3 44 45 41
3 46 47 48
3 49 50 51
3 26 52 53
3 28 54 55
3 25 56 57
3 31 58 52
3 7 27 59
3 33 60 24
3 8 59 61
3 37 62 60
3 35 61 63
3 41 64 62
3 65 66 67
3 68 69 70
3 54 71 72
3 56 73 74
3 58 75 76
3 24 77 56
3 27 53 78
3 60 79 77
3 59 78 80
3 62 81 79
3 82 83 84
3 85 86 87
3 73 88 89
3 75 90 91
3 52 76 92
3 77 93 73
3 53 92 94
3 79 95 93
3 96 97 98
3 99 100 101
3 90 102 103
3 71 104 105
3 76 91 106
3 93 107 88
3 108 109 110
3 111 112 113
3 88 114 115
3 104 116 117
3 118 119 120
3 121 122 123
3 124 125 126
3 127 128 129
3 130 131 132
3 133 134 135
3 136 137 138
3 139 140 141
3 142 143 144
3 145 146 147
3 148 149 150
3 151 152 153
3 154 155 156
3 157 158 159
3 160 161 162
3 163 164 165
3 160 166 165
3 167 166 160
3 167 129 163
3 168 169 155
3 170 171 172
3 131 173 174
3 122 175 159
3 176 162 175
3 162 161 157
3 177 178 179
3 180 181 182
3 125 172 183
3 184 153 185
3 141 184 186
3 140 151 184
3 187 150 188
3 153 187 189
3 152 148 187
3 190 147 143
3 191 190 142
3 192 145 190
3 193 144 194
3 195 193 196
3 197 142 193
3 198 141 4
3 144 198 199
3 143 139 198
3 133 136 200
3 201 136 133
3 201 202 137
3 145 203 135
3 204 203 145
3 205 133 203
3 124 206 170
3 207 208 209
3 135 134 210
3 210 127 167
3 200 127 210
3 138 128 127
3 211 180 212
3 213 214 215
3 216 209 217
3 121 218 149
3 152 219 121
3 219 176 122
3 157 0 220
3 165 0 157
3 164 1 0
3 220 0 2
3 196 3 221
3 189 188 5
3 5 185 189
3 5 4 186
3 3 194 199
3 194 3 196
3 186 185 5
3 3 199 4
3 34 6 8
3 17 9 11
3 6 12 7
3 222 14 16
3 223 17 18
3 12 19 13
3 224 21 23
3 11 10 25
3 7 13 27
3 16 15 29
3 18 11 30
3 13 20 26
3 9 32 10
3 38 34 35
3 32 36 33
3 42 38 39
3 36 40 37
3 225 42 43
3 40 44 41
3 226 46 48
3 227 49 51
3 27 26 53
3 29 28 55
3 30 25 57
3 26 31 52
3 8 7 59
3 10 33 24
3 35 8 61
3 33 37 60
3 39 35 63
3 37 41 62
3 228 65 67
3 229 68 70
3 55 54 72
3 57 56 74
3 52 58 76
3 25 24 56
3 59 27 78
3 24 60 77
3 61 59 80
3 60 62 79
3 230 82 84
3 231 85 87
3 74 73 89
3 76 75 91
3 53 52 92
3 56 77 73
3 78 53 94
3 77 79 93
3 232 96 98
3 233 99 101
3 91 90 103
3 72 71 105
3 92 76 106
3 73 93 88
3 234 108 110
3 235 111 113
3 89 88 115
3 105 104 117
3 236 118 120
3 218 121 123
3 237 124 126
3 167 127 129
3 238 130 132
3 203 133 135
3 200 136 138
3 198 139 141
3 193 142 144
3 190 145 147
3 187 148 150
3 184 151 153
3 239 154 156
3 175 157 159
3 240 241 242
3 166 163 165
3 161 160 165
3 243 167 160
3 166 167 163
3 154 168 155
3 125 170 172
3 132 131 174
3 123 122 159
3 122 176 175
3 175 162 157
3 152 151 219
3 212 180 182
3 126 125 183
3 186 184 185
3 4 141 186
3 141 140 184
3 189 187 188
3 185 153 189
3 153 152 187
3 142 190 143
3 197 191 142
3 191 192 190
3 196 193 194
3 221 195 196
3 195 197 193
3 199 198 4
3 194 144 199
3 144 143 198
3 134 133 200
3 205 201 133
3 136 201 137
3 146 145 135
3 192 204 145
3 204 205 203
3 125 124 170
3 216 207 209
3 244 245 246
3 243 210 167
3 134 200 210
3 200 138 127
3 247 211 212
3 143 147 139
3 248 216 217
3 148 121 149
3 148 152 121
3 121 219 122
3 158 157 220
3 161 165 157
3 165 164 0
